<svg width="456" height="420" viewBox="0 0 456 420" fill="none" xmlns="http://www.w3.org/2000/svg">
<path d="M580.078 259.026C571.95 230.1 555.646 204.213 538.766 179.359C515.224 144.688 490.134 111.129 463.495 78.6825C436.48 45.7446 401.617 2.44448 354.472 0.31651C307.127 -1.81703 267.162 38.3615 229.815 61.7487C170.24 99.0696 110.075 137.079 53.5858 178.97C27.8091 198.08 -0.421532 224.36 4.71638 256.019C8.69962 280.528 32.8425 297.736 57.3486 301.807C81.8547 305.878 106.774 299.676 130.833 293.522L205.063 274.548C230.855 267.988 259.465 261.638 283.042 273.987C327.845 297.468 321.886 367.833 359.798 401.348C395.208 432.656 450.305 418.031 493.919 399.85C523.355 387.568 554.103 373.02 571.166 346.056C587.256 320.691 588.207 287.944 580.078 259.026Z" fill="#C82035"/>
</svg>
