<svg width="16" height="16" viewBox="0 0 16 16" fill="none" xmlns="http://www.w3.org/2000/svg">
<g clip-path="url(#clip0)">
<path d="M15.2728 0H9.45465C9.05299 0 8.72737 0.325625 8.72737 0.727281C8.72737 1.12894 9.05299 1.45456 9.45465 1.45456H13.5171L6.03134 8.94031C5.74737 9.22428 5.74737 9.68478 6.03134 9.96881C6.1733 10.1108 6.35943 10.1818 6.54555 10.1818C6.73168 10.1818 6.91784 10.1108 7.05977 9.96878L14.5456 2.48306V6.54547C14.5456 6.94712 14.8712 7.27275 15.2729 7.27275C15.6745 7.27275 16.0001 6.94712 16.0001 6.54547V0.727281C16.0001 0.325625 15.6745 0 15.2728 0Z" fill="#663077"/>
<path d="M12.3636 7.27274C11.962 7.27274 11.6363 7.59837 11.6363 8.00003V14.5455H1.45453V4.36365H8C8.40166 4.36365 8.72728 4.03802 8.72728 3.63637C8.72728 3.23471 8.40166 2.90912 8 2.90912H0.727281C0.325625 2.90912 0 3.23474 0 3.6364V15.2728C0 15.6744 0.325625 16 0.727281 16H12.3637C12.7653 16 13.0909 15.6744 13.0909 15.2727V8.00003C13.0909 7.59837 12.7653 7.27274 12.3636 7.27274Z" fill="#663077"/>
</g>
<defs>
<clipPath id="clip0">
<rect width="16" height="16" fill="white"/>
</clipPath>
</defs>
</svg>
