<svg id="Layer_1" data-name="Layer 1" xmlns="http://www.w3.org/2000/svg" viewBox="0 0 300 78"><defs><style>.cls-1{fill:#fff;}</style></defs><title>AND logo mono horizontal RGB_300x78</title><path class="cls-1" d="M185.53,19.07l-2.35-5.82h0l-2.39,5.82Zm-3.06-8H184l5.39,12.69h-2l-1.27-3.13h-6l-1.25,3.13h-2L182.47,11Z"/><path class="cls-1" d="M192.53,11V18.8a4.83,4.83,0,0,0,.16,1.23,3.27,3.27,0,0,0,.53,1.17,2.78,2.78,0,0,0,1,.88,3,3,0,0,0,1.49.34,3,3,0,0,0,1.5-.34,2.87,2.87,0,0,0,1-.88A3.46,3.46,0,0,0,198.7,20a4.83,4.83,0,0,0,.16-1.23V11h1.71v8.05a5.46,5.46,0,0,1-.37,2,5,5,0,0,1-1,1.57,4.55,4.55,0,0,1-1.55,1,5.3,5.3,0,0,1-3.84,0,4.65,4.65,0,0,1-1.55-1,4.92,4.92,0,0,1-1-1.57,5.27,5.27,0,0,1-.37-2V11Z"/><path class="cls-1" d="M204,21.06a2.78,2.78,0,0,0,1.18,1,3.55,3.55,0,0,0,1.49.33,3,3,0,0,0,.87-.13,2.58,2.58,0,0,0,.81-.41,2.24,2.24,0,0,0,.6-.66,1.81,1.81,0,0,0,.23-.91,1.36,1.36,0,0,0-.47-1.12,4,4,0,0,0-1.14-.65c-.46-.17-1-.34-1.5-.5a5.75,5.75,0,0,1-1.49-.67,3.64,3.64,0,0,1-1.15-1.16,3.58,3.58,0,0,1-.46-2,3.31,3.31,0,0,1,.24-1.18,3.36,3.36,0,0,1,.75-1.15,4.51,4.51,0,0,1,1.33-.87,5,5,0,0,1,1.95-.35,6.75,6.75,0,0,1,2,.29,3.44,3.44,0,0,1,1.66,1.16l-1.39,1.28a2.25,2.25,0,0,0-.91-.81,2.86,2.86,0,0,0-1.33-.3,3.29,3.29,0,0,0-1.18.18,2.13,2.13,0,0,0-.76.49,1.67,1.67,0,0,0-.4.63,1.93,1.93,0,0,0-.12.63,1.64,1.64,0,0,0,.46,1.24,3.65,3.65,0,0,0,1.15.7,13.23,13.23,0,0,0,1.5.48,6.12,6.12,0,0,1,1.49.6,3.47,3.47,0,0,1,1.15,1,3.08,3.08,0,0,1,.46,1.8A3.75,3.75,0,0,1,209.66,23a4.16,4.16,0,0,1-1.39.77,5.28,5.28,0,0,1-1.71.27,6.3,6.3,0,0,1-2.29-.43,3.84,3.84,0,0,1-1.73-1.33L204,21.06Z"/><polygon class="cls-1" points="216.1 12.64 212.04 12.64 212.04 11.03 221.87 11.03 221.87 12.64 217.81 12.64 217.81 23.71 216.1 23.71 216.1 12.64 216.1 12.64"/><path class="cls-1" d="M225.39,16.62h2.24a6.5,6.5,0,0,0,1-.08,2.79,2.79,0,0,0,.87-.3,1.61,1.61,0,0,0,.62-.62,2.15,2.15,0,0,0,.23-1,2.08,2.08,0,0,0-.23-1,1.61,1.61,0,0,0-.62-.62,2.56,2.56,0,0,0-.87-.3,6.5,6.5,0,0,0-1-.08h-2.24v4.09ZM223.68,11h4.43a5.21,5.21,0,0,1,2,.34,3.34,3.34,0,0,1,1.23.84,2.66,2.66,0,0,1,.63,1.15,4.45,4.45,0,0,1,.18,1.22,3.25,3.25,0,0,1-.83,2.2,3.55,3.55,0,0,1-1,.77,3.28,3.28,0,0,1-1.29.38l3.57,5.79H230.5l-3.2-5.59h-1.91v5.59h-1.71V11Z"/><path class="cls-1" d="M241.57,19.07l-2.35-5.82h0l-2.38,5.82Zm-3.06-8h1.54l5.39,12.69h-2l-1.26-3.13h-6l-1.25,3.13h-2L238.51,11Z"/><polygon class="cls-1" points="247.08 11.03 248.79 11.03 248.79 22.1 254.57 22.1 254.57 23.71 247.08 23.71 247.08 11.03 247.08 11.03"/><polygon class="cls-1" points="256.32 11.03 258.02 11.03 258.02 23.71 256.32 23.71 256.32 11.03 256.32 11.03"/><path class="cls-1" d="M268.27,19.07l-2.35-5.82h0l-2.38,5.82Zm-3.06-8h1.55l5.39,12.69h-2l-1.26-3.13h-6l-1.25,3.13h-2L265.21,11Z"/><polygon class="cls-1" points="273.79 11.03 276.03 11.03 282.97 21.45 283.01 21.45 283.01 11.03 284.71 11.03 284.71 23.71 282.54 23.71 275.53 13.28 275.5 13.28 275.5 23.71 273.79 23.71 273.79 11.03 273.79 11.03"/><polygon class="cls-1" points="178.52 30.94 180.76 30.94 187.7 41.37 187.74 41.37 187.74 30.94 189.45 30.94 189.45 43.62 187.28 43.62 180.27 33.2 180.23 33.2 180.23 43.62 178.52 43.62 178.52 30.94 178.52 30.94"/><polygon class="cls-1" points="192.69 30.94 200.82 30.94 200.82 32.55 194.39 32.55 194.39 36.33 200.37 36.33 200.37 37.95 194.39 37.95 194.39 42.01 201.14 42.01 201.14 43.62 192.69 43.62 192.69 30.94 192.69 30.94"/><polygon class="cls-1" points="206.19 32.55 202.13 32.55 202.13 30.94 211.96 30.94 211.96 32.55 207.9 32.55 207.9 43.62 206.19 43.62 206.19 32.55 206.19 32.55"/><polygon class="cls-1" points="212.17 30.94 213.95 30.94 216.73 41.08 216.77 41.08 219.73 30.94 221.69 30.94 224.65 41.08 224.69 41.08 227.47 30.94 229.25 30.94 225.59 43.62 223.77 43.62 220.73 33.27 220.69 33.27 217.67 43.62 215.85 43.62 212.17 30.94 212.17 30.94"/><path class="cls-1" d="M236.67,42.34a4.6,4.6,0,0,0,3.45-1.49,4.66,4.66,0,0,0,1-1.61,5.82,5.82,0,0,0,0-3.92,4.69,4.69,0,0,0-2.45-2.69,5,5,0,0,0-3.92,0,4.69,4.69,0,0,0-2.45,2.69,5.82,5.82,0,0,0,0,3.92,4.61,4.61,0,0,0,2.45,2.69,4.61,4.61,0,0,0,2,.41Zm0,1.61a6.77,6.77,0,0,1-2.65-.51A6,6,0,0,1,232,42a6.36,6.36,0,0,1-1.35-2.11,7,7,0,0,1-.5-2.64,6.92,6.92,0,0,1,.5-2.63A6.3,6.3,0,0,1,232,32.53a6,6,0,0,1,2.07-1.4,7,7,0,0,1,5.3,0,6.15,6.15,0,0,1,2.08,1.4,6.63,6.63,0,0,1,1.35,2.12,7.11,7.11,0,0,1,.49,2.63,7.2,7.2,0,0,1-.49,2.64A6.69,6.69,0,0,1,241.4,42a6.18,6.18,0,0,1-2.08,1.41,6.73,6.73,0,0,1-2.65.51Z"/><path class="cls-1" d="M247.4,36.53h2.24a6.5,6.5,0,0,0,1-.08,2.56,2.56,0,0,0,.87-.3,1.61,1.61,0,0,0,.62-.62,2.49,2.49,0,0,0,0-2.09,1.61,1.61,0,0,0-.62-.62,2.56,2.56,0,0,0-.87-.3,6.5,6.5,0,0,0-1-.08H247.4v4.09Zm-1.71-5.59h4.43a5.22,5.22,0,0,1,2,.33,3.34,3.34,0,0,1,1.23.84,2.66,2.66,0,0,1,.63,1.15,4.47,4.47,0,0,1,.18,1.23,3.36,3.36,0,0,1-.21,1.17,3.3,3.3,0,0,1-.61,1,3.56,3.56,0,0,1-1,.77,3.47,3.47,0,0,1-1.29.39l3.57,5.78h-2.13L249.31,38H247.4v5.59h-1.71V30.94Z"/><polygon class="cls-1" points="256.57 30.94 258.27 30.94 258.27 36.42 258.42 36.42 263.99 30.94 266.37 30.94 260.28 36.8 266.78 43.62 264.29 43.62 258.42 37.28 258.27 37.28 258.27 43.62 256.57 43.62 256.57 30.94 256.57 30.94"/><path class="cls-1" d="M179,57.19a6.37,6.37,0,0,0,.38,2.21,5.12,5.12,0,0,0,1.07,1.77,4.82,4.82,0,0,0,1.68,1.18,5.92,5.92,0,0,0,4.43,0,4.82,4.82,0,0,0,1.68-1.18,5.28,5.28,0,0,0,1.07-1.77,6.76,6.76,0,0,0,0-4.41,5.42,5.42,0,0,0-1.07-1.78A5,5,0,0,0,186.54,52a5.92,5.92,0,0,0-4.43,0,5,5,0,0,0-1.68,1.18A5.26,5.26,0,0,0,179.36,55a6.31,6.31,0,0,0-.38,2.2Zm-1.17,0a7.21,7.21,0,0,1,.48-2.67,6.35,6.35,0,0,1,1.34-2.1A5.91,5.91,0,0,1,181.68,51a6.68,6.68,0,0,1,2.64-.5A6.76,6.76,0,0,1,187,51,6,6,0,0,1,189,52.42a6.32,6.32,0,0,1,1.33,2.1,7.21,7.21,0,0,1,.49,2.67,7.3,7.3,0,0,1-.49,2.68A6.31,6.31,0,0,1,189,62,6,6,0,0,1,187,63.37a6.94,6.94,0,0,1-2.65.49,6.86,6.86,0,0,1-2.64-.49A5.89,5.89,0,0,1,179.63,62a6.33,6.33,0,0,1-1.34-2.12,7.3,7.3,0,0,1-.48-2.68Z"/><polygon class="cls-1" points="193.47 50.85 194.98 50.85 202.65 61.96 202.69 61.96 202.69 50.85 203.86 50.85 203.86 63.54 202.35 63.54 194.68 52.42 194.64 52.42 194.64 63.54 193.47 63.54 193.47 50.85 193.47 50.85"/><path class="cls-1" d="M213,62.46h2.42a8.31,8.31,0,0,0,2.33-.31,5.36,5.36,0,0,0,1.89-1,4.59,4.59,0,0,0,1.26-1.64,6.14,6.14,0,0,0,0-4.71,4.5,4.5,0,0,0-1.26-1.64,5.36,5.36,0,0,0-1.89-1,8.3,8.3,0,0,0-2.33-.32H213V62.46Zm-1.17-11.61h3.89a8.34,8.34,0,0,1,2.78.4,6.46,6.46,0,0,1,1.9,1,5.16,5.16,0,0,1,1.19,1.39,7.23,7.23,0,0,1,.64,1.46,8,8,0,0,1,.26,1.27c0,.37.05.64.05.79s0,.42-.05.8a7.65,7.65,0,0,1-.26,1.26,6.77,6.77,0,0,1-.64,1.46,5.16,5.16,0,0,1-1.19,1.39,6,6,0,0,1-1.9,1,8.32,8.32,0,0,1-2.78.41h-3.89V50.85Z"/><polygon class="cls-1" points="225.12 50.85 226.3 50.85 226.3 63.54 225.12 63.54 225.12 50.85 225.12 50.85"/><path class="cls-1" d="M230.09,61.19a3,3,0,0,0,1.2,1.2,3.53,3.53,0,0,0,1.68.39,3.06,3.06,0,0,0,1.1-.18,2.47,2.47,0,0,0,.9-.5,2.23,2.23,0,0,0,.61-.78,2.26,2.26,0,0,0,.22-1,1.94,1.94,0,0,0-.28-1.09,2.19,2.19,0,0,0-.74-.71,5.26,5.26,0,0,0-1-.47l-1.19-.4c-.41-.13-.8-.28-1.19-.44a4,4,0,0,1-1-.66,3,3,0,0,1-.74-1,3.74,3.74,0,0,1-.27-1.51,3.23,3.23,0,0,1,.32-1.49,3.3,3.3,0,0,1,.89-1.1,4.14,4.14,0,0,1,1.29-.66,5.19,5.19,0,0,1,1.53-.22,5,5,0,0,1,1.92.36,3.77,3.77,0,0,1,1.52,1.23l-1,.74a2.81,2.81,0,0,0-1-.94,3,3,0,0,0-1.41-.32,3.93,3.93,0,0,0-1.09.15,3.16,3.16,0,0,0-.9.45,2.24,2.24,0,0,0-.61.75,2.29,2.29,0,0,0-.23,1,2,2,0,0,0,.48,1.46,3.44,3.44,0,0,0,1.2.81,12,12,0,0,0,1.57.52,7.65,7.65,0,0,1,1.56.6,3.36,3.36,0,0,1,1.2,1,3.15,3.15,0,0,1,.48,1.85,3.34,3.34,0,0,1-1.18,2.65,3.9,3.9,0,0,1-1.25.69,4.92,4.92,0,0,1-1.48.23,6,6,0,0,1-2.3-.44A4.15,4.15,0,0,1,229,61.94l1.12-.75Z"/><path class="cls-1" d="M244.06,52.14l-2.94,7h5.78l-2.84-7Zm-.55-1.29h1.21L250,63.54H248.7l-1.37-3.37h-6.67l-1.42,3.37H238l5.5-12.69Z"/><path class="cls-1" d="M253,62.46h2.68a4.59,4.59,0,0,0,1.67-.25,2.63,2.63,0,0,0,1-.63,2,2,0,0,0,.45-.79,2.9,2.9,0,0,0,.12-.77,2.53,2.53,0,0,0-.27-1.2,2.39,2.39,0,0,0-.7-.81,2.85,2.85,0,0,0-1-.46,4.61,4.61,0,0,0-1.1-.14H253v5.05Zm0-6.13h2.43a4.09,4.09,0,0,0,1.48-.22,2.46,2.46,0,0,0,.89-.55,1.6,1.6,0,0,0,.43-.69,2.42,2.42,0,0,0,.1-.67,2.4,2.4,0,0,0-.22-1.1,1.86,1.86,0,0,0-.59-.7,2.49,2.49,0,0,0-.88-.37,5,5,0,0,0-1-.11H253v4.41Zm-1.18-5.48h3.63a10,10,0,0,1,1.44.11,3.39,3.39,0,0,1,1.31.49,2.65,2.65,0,0,1,.94,1,3.47,3.47,0,0,1,.37,1.73,2.61,2.61,0,0,1-.57,1.68,2.75,2.75,0,0,1-1.69.95v0a3.31,3.31,0,0,1,1.14.3,2.85,2.85,0,0,1,.89.64,2.9,2.9,0,0,1,.58,1,3.67,3.67,0,0,1,.2,1.22,3.37,3.37,0,0,1-.42,1.78,3.32,3.32,0,0,1-1,1.09,4,4,0,0,1-1.37.53,6.92,6.92,0,0,1-1.38.15h-4V50.85Z"/><polygon class="cls-1" points="263.04 50.85 264.21 50.85 264.21 63.54 263.04 63.54 263.04 50.85 263.04 50.85"/><polygon class="cls-1" points="267.67 50.85 268.84 50.85 268.84 62.46 274.71 62.46 274.71 63.54 267.67 63.54 267.67 50.85 267.67 50.85"/><polygon class="cls-1" points="276.57 50.85 277.74 50.85 277.74 63.54 276.57 63.54 276.57 50.85 276.57 50.85"/><polygon class="cls-1" points="283.99 51.92 279.68 51.92 279.68 50.85 289.47 50.85 289.47 51.92 285.16 51.92 285.16 63.54 283.99 63.54 283.99 51.92 283.99 51.92"/><polygon class="cls-1" points="294.2 58.07 289.57 50.85 290.98 50.85 294.79 56.87 298.68 50.85 300 50.85 295.37 58.07 295.37 63.54 294.2 63.54 294.2 58.07 294.2 58.07"/><polygon class="cls-1" points="146.36 78 136.72 65.55 155.54 50.77 165.18 63.22 146.36 78 146.36 78"/><polygon class="cls-1" points="142.17 38.77 136.72 65.55 151.81 51.22 142.17 38.77 142.17 38.77"/><line class="cls-1" x1="118.54" y1="32.1" x2="118.52" y2="32.08"/><polyline class="cls-1" points="81.57 63.9 118.51 32.06 108.9 19.66 81.57 63.9"/><polygon class="cls-1" points="92.72 9.23 54.68 62.25 102.36 21.68 92.72 9.23 92.72 9.23"/><polygon class="cls-1" points="134.76 42.14 125.12 29.69 110.03 64.01 134.76 42.14 134.76 42.14"/><polygon class="cls-1" points="98.14 70.88 125.12 29.69 81.57 63.9 91.21 76.35 98.14 70.88 98.14 70.88"/><polygon class="cls-1" points="71.29 69.19 108.9 19.66 85.14 58.34 118.54 32.1 108.9 19.66 54.68 62.25 64.32 74.7 71.29 69.19 71.29 69.19"/><polyline class="cls-1" points="142.17 38.77 110.03 64.01 119.67 76.46 126.78 70.88 142.17 38.77"/><polygon class="cls-1" points="15.87 66.48 75.26 0 27.43 60.52 84.9 12.45 75.26 0 0 59.12 9.64 71.57 15.87 66.48 15.87 66.48"/><polygon class="cls-1" points="43.59 67.68 92.72 9.23 27.43 60.52 37.07 72.97 43.59 67.68 43.59 67.68"/></svg>