<svg width="33" height="30" viewBox="0 0 33 30" fill="none" xmlns="http://www.w3.org/2000/svg">
<path d="M21.641 1.24121C12.7526 -1.86068 5.06077 1.24121 1.64218 6.23869C-1.77642 11.2362 2.83868 26.7455 10.7015 29.3304C18.5642 31.9153 28.6491 26.7455 31.5549 18.4738C34.4607 10.2021 30.5293 4.3431 21.641 1.24121Z" fill="#AD640B"/>
<path d="M19.1665 14.9996C20.2732 14.9996 21.1598 14.1063 21.1598 12.9996C21.1598 11.893 20.2732 10.9996 19.1665 10.9996C18.0598 10.9996 17.1665 11.893 17.1665 12.9996C17.1665 14.1063 18.0598 14.9996 19.1665 14.9996ZM13.8332 14.9996C14.9398 14.9996 15.8265 14.1063 15.8265 12.9996C15.8265 11.893 14.9398 10.9996 13.8332 10.9996C12.7265 10.9996 11.8332 11.893 11.8332 12.9996C11.8332 14.1063 12.7265 14.9996 13.8332 14.9996ZM13.8332 16.333C12.2798 16.333 9.1665 17.113 9.1665 18.6663V20.333H18.4998V18.6663C18.4998 17.113 15.3865 16.333 13.8332 16.333ZM19.1665 16.333C18.9732 16.333 18.7532 16.3463 18.5198 16.3663C19.2932 16.9263 19.8332 17.6796 19.8332 18.6663V20.333H23.8332V18.6663C23.8332 17.113 20.7198 16.333 19.1665 16.333Z" fill="white"/>
</svg>
