<svg width="141" height="97" viewBox="0 0 141 97" fill="none" xmlns="http://www.w3.org/2000/svg">
<path fill-rule="evenodd" clip-rule="evenodd" d="M14.0395 81.9284L12.6059 78.4008H12.5847L11.13 81.9284H14.0395ZM12.1717 77.0544H13.1168L16.4057 84.7401H15.1896L14.4195 82.8405H10.7605L10.001 84.7401H8.78491L12.1717 77.0544Z" fill="#373835"/>
<path fill-rule="evenodd" clip-rule="evenodd" d="M18.3066 77.0544V81.7663C18.3066 82.005 18.339 82.2524 18.4044 82.5093C18.4698 82.7674 18.5782 83.0043 18.7303 83.2211C18.8823 83.4373 19.0814 83.6153 19.3271 83.7532C19.5728 83.8899 19.8769 83.9594 20.2392 83.9594C20.601 83.9594 20.9044 83.8899 21.1507 83.7532C21.397 83.6153 21.5962 83.4373 21.7482 83.2211C21.9002 83.0043 22.0086 82.7674 22.0734 82.5093C22.1394 82.2524 22.1718 82.005 22.1718 81.7663V77.0544H23.2135V81.9284C23.2135 82.3774 23.1375 82.7851 22.9855 83.1504C22.8335 83.5151 22.6237 83.8321 22.3557 84.1008C22.0887 84.3683 21.7735 84.5745 21.4117 84.7189C21.0494 84.8638 20.6593 84.9357 20.2392 84.9357C19.8191 84.9357 19.4285 84.8638 19.0667 84.7189C18.7049 84.5745 18.3897 84.3683 18.1222 84.1008C17.8541 83.8321 17.6449 83.5151 17.4929 83.1504C17.3409 82.7851 17.2649 82.3774 17.2649 81.9284V77.0544H18.3066Z" fill="#373835"/>
<path fill-rule="evenodd" clip-rule="evenodd" d="M25.2755 83.134C25.4641 83.4162 25.7045 83.6248 25.9979 83.7579C26.2913 83.8923 26.593 83.9594 26.9041 83.9594C27.0779 83.9594 27.2553 83.9323 27.4361 83.8781C27.617 83.8227 27.782 83.7414 27.9305 83.633C28.0784 83.5246 28.1998 83.3903 28.2934 83.2318C28.3877 83.0727 28.4348 82.8877 28.4348 82.6779C28.4348 82.3809 28.3406 82.1547 28.1526 81.9991C27.9647 81.8436 27.7313 81.7146 27.4526 81.6085C27.1739 81.5036 26.8699 81.4023 26.5405 81.3045C26.2112 81.2067 25.9071 81.0711 25.6284 80.8979C25.3498 80.7235 25.117 80.4902 24.9291 80.1973C24.7405 79.9051 24.6462 79.508 24.6462 79.0083C24.6462 78.785 24.6951 78.5458 24.7929 78.2924C24.8908 78.0391 25.0445 77.8069 25.2543 77.5972C25.4641 77.3874 25.7333 77.2124 26.0633 77.071C26.3927 76.9296 26.788 76.8589 27.2517 76.8589C27.6718 76.8589 28.0731 76.9178 28.4566 77.0333C28.8402 77.1488 29.1773 77.3839 29.4666 77.7386L28.6193 78.5093C28.4891 78.3066 28.3046 78.1439 28.0654 78.0214C27.8274 77.8977 27.5557 77.8364 27.2517 77.8364C26.9618 77.8364 26.7214 77.8741 26.5299 77.9507C26.3384 78.0261 26.1841 78.1239 26.0686 78.2429C25.9525 78.3631 25.8712 78.4916 25.8241 78.6295C25.7769 78.7661 25.7534 78.8928 25.7534 79.0083C25.7534 79.3347 25.8476 79.5846 26.0362 79.7578C26.2241 79.9322 26.4569 80.0724 26.7356 80.182C27.0143 80.2904 27.3183 80.3877 27.6483 80.4737C27.9776 80.5609 28.2811 80.6823 28.5598 80.8378C28.8385 80.9934 29.0718 81.2031 29.2603 81.4683C29.4483 81.7322 29.542 82.0958 29.542 82.5589C29.542 82.9277 29.4719 83.2606 29.331 83.5576C29.1896 83.8546 28.9999 84.1044 28.7607 84.3071C28.5221 84.5098 28.2392 84.6653 27.914 84.7731C27.5882 84.8815 27.2411 84.9358 26.8717 84.9358C26.3797 84.9358 25.913 84.8486 25.4711 84.6759C25.0298 84.5015 24.6792 84.234 24.4182 83.8722L25.2755 83.134Z" fill="#373835"/>
<path fill-rule="evenodd" clip-rule="evenodd" d="M32.6893 78.0319H30.2146V77.0544H36.2069V78.0319H33.7322V84.7401H32.6893V78.0319Z" fill="#373835"/>
<path fill-rule="evenodd" clip-rule="evenodd" d="M38.356 80.4418H39.7236C39.9263 80.4418 40.1272 80.4253 40.3263 80.3923C40.5255 80.3605 40.7029 80.301 40.8584 80.2138C41.014 80.1266 41.1383 80.0017 41.2331 79.839C41.3268 79.6764 41.374 79.4643 41.374 79.2039C41.374 78.9434 41.3268 78.7319 41.2331 78.5693C41.1383 78.4067 41.014 78.2818 40.8584 78.1946C40.7029 78.1074 40.5255 78.0484 40.3263 78.0154C40.1272 77.9824 39.9263 77.9659 39.7236 77.9659H38.356V80.4418ZM37.3137 77.0544H40.017C40.509 77.0544 40.9144 77.1216 41.2331 77.2559C41.5513 77.3897 41.8029 77.5594 41.9873 77.7656C42.1723 77.9718 42.3008 78.204 42.3733 78.4609C42.4451 78.7178 42.4817 78.9647 42.4817 79.2039C42.4817 79.4502 42.4381 79.687 42.3515 79.9156C42.2643 80.1431 42.1393 80.3487 41.9767 80.5337C41.8135 80.7187 41.6144 80.8743 41.3793 81.0004C41.1448 81.1276 40.882 81.2054 40.5927 81.2337L42.7745 84.7401H41.4718L39.518 81.3539H38.356V84.7401H37.3137V77.0544Z" fill="#373835"/>
<path fill-rule="evenodd" clip-rule="evenodd" d="M48.2255 81.9284L46.7913 78.4008H46.7701L45.3154 81.9284H48.2255ZM46.3571 77.0544H47.3016L50.5906 84.7401H49.375L48.6049 82.8405H44.9459L44.1864 84.7401H42.9697L46.3571 77.0544Z" fill="#373835"/>
<path fill-rule="evenodd" clip-rule="evenodd" d="M51.5903 77.0544H52.6321V83.7638H56.1608V84.7401H51.5903V77.0544Z" fill="#373835"/>
<path fill-rule="evenodd" clip-rule="evenodd" d="M57.2256 84.7401H58.2667V77.0544H57.2256V84.7401Z" fill="#373835"/>
<path fill-rule="evenodd" clip-rule="evenodd" d="M64.5208 81.9284L63.0872 78.4008H63.066L61.6113 81.9284H64.5208ZM62.6536 77.0544H63.5969L66.887 84.7401H65.6715L64.8996 82.8405H61.2424L60.4812 84.7401H59.2656L62.6536 77.0544Z" fill="#373835"/>
<path fill-rule="evenodd" clip-rule="evenodd" d="M67.8862 77.0544H69.2538L73.4873 83.3725H73.5096V77.0544H74.5514V84.7401H73.2274L68.9503 78.4232H68.928V84.7401H67.8862V77.0544Z" fill="#373835"/>
<path fill-rule="evenodd" clip-rule="evenodd" d="M79.5444 77.0544H80.912L85.146 83.3725H85.1678V77.0544H86.2096V84.7401H84.8856L80.6085 78.4232H80.5861V84.7401H79.5444V77.0544Z" fill="#373835"/>
<path fill-rule="evenodd" clip-rule="evenodd" d="M88.1858 77.0544H93.1463V78.0319H89.2275V80.3216H92.8753V81.2997H89.2275V83.7638H93.342V84.7401H88.1858V77.0544Z" fill="#373835"/>
<path fill-rule="evenodd" clip-rule="evenodd" d="M96.4246 78.0319H93.9487V77.0544H99.9422V78.0319H97.4657V84.7401H96.4246V78.0319Z" fill="#373835"/>
<path fill-rule="evenodd" clip-rule="evenodd" d="M100.072 77.0544H101.159L102.857 83.1999H102.878L104.686 77.0544H105.881L107.688 83.1999H107.71L109.409 77.0544H110.495L108.258 84.7401H107.151L105.294 78.4656H105.273L103.427 84.7401H102.32L100.072 77.0544Z" fill="#373835"/>
<path fill-rule="evenodd" clip-rule="evenodd" d="M115.022 83.9594C115.464 83.9594 115.862 83.8781 116.216 83.7143C116.571 83.5517 116.875 83.3325 117.128 83.0585C117.381 82.7828 117.576 82.4587 117.713 82.0863C117.851 81.7146 117.921 81.3174 117.921 80.8979C117.921 80.4784 117.851 80.0819 117.713 79.7095C117.576 79.3359 117.381 79.0119 117.128 78.7379C116.875 78.4621 116.571 78.2429 116.216 78.0803C115.862 77.9177 115.464 77.8364 115.022 77.8364C114.58 77.8364 114.182 77.9177 113.827 78.0803C113.473 78.2429 113.169 78.4621 112.916 78.7379C112.662 79.0119 112.467 79.3359 112.329 79.7095C112.192 80.0819 112.123 80.4784 112.123 80.8979C112.123 81.3174 112.192 81.7146 112.329 82.0863C112.467 82.4587 112.662 82.7828 112.916 83.0585C113.169 83.3325 113.473 83.5517 113.827 83.7143C114.182 83.8781 114.58 83.9594 115.022 83.9594ZM115.022 84.9358C114.435 84.9358 113.896 84.8332 113.404 84.6264C112.912 84.4202 112.49 84.1362 112.139 83.7744C111.788 83.4127 111.514 82.9855 111.315 82.4941C111.116 82.0015 111.016 81.4694 111.016 80.8979C111.016 80.3264 111.116 79.7943 111.315 79.3017C111.514 78.8098 111.788 78.3832 112.139 78.0214C112.49 77.6584 112.912 77.3744 113.404 77.1688C113.896 76.9626 114.435 76.8589 115.022 76.8589C115.609 76.8589 116.146 76.9626 116.639 77.1688C117.132 77.3744 117.553 77.6584 117.904 78.0214C118.255 78.3832 118.53 78.8098 118.729 79.3017C118.928 79.7943 119.028 80.3264 119.028 80.8979C119.028 81.4694 118.928 82.0015 118.729 82.4941C118.53 82.9855 118.255 83.4127 117.904 83.7744C117.553 84.1362 117.132 84.4202 116.639 84.6264C116.146 84.8332 115.609 84.9358 115.022 84.9358Z" fill="#373835"/>
<path fill-rule="evenodd" clip-rule="evenodd" d="M121.565 80.4418H122.934C123.137 80.4418 123.337 80.4253 123.536 80.3923C123.735 80.3605 123.912 80.301 124.068 80.2138C124.224 80.1266 124.349 80.0017 124.443 79.839C124.536 79.6764 124.583 79.4643 124.583 79.2039C124.583 78.9434 124.536 78.7319 124.443 78.5693C124.349 78.4067 124.224 78.2818 124.068 78.1946C123.912 78.1074 123.735 78.0484 123.536 78.0154C123.337 77.9824 123.137 77.9659 122.934 77.9659H121.565V80.4418ZM120.524 77.0544H123.226C123.718 77.0544 124.124 77.1216 124.443 77.2559C124.761 77.3897 125.012 77.5594 125.197 77.7656C125.382 77.9718 125.51 78.204 125.582 78.4609C125.655 78.7178 125.69 78.9647 125.69 79.2039C125.69 79.4502 125.648 79.687 125.561 79.9156C125.474 80.1431 125.349 80.3487 125.186 80.5337C125.023 80.7187 124.824 80.8743 124.589 81.0004C124.354 81.1276 124.092 81.2054 123.802 81.2337L125.984 84.7401H124.681L122.728 81.3539H121.565V84.7401H120.524V77.0544Z" fill="#373835"/>
<path fill-rule="evenodd" clip-rule="evenodd" d="M127.158 77.0544H128.199V80.3758H128.287L131.685 77.0544H133.14L129.427 80.6044L133.39 84.7401H131.869L128.287 80.8978H128.199V84.7401H127.158V77.0544Z" fill="#373835"/>
<path fill-rule="evenodd" clip-rule="evenodd" d="M36.1536 92.9602C36.1536 93.4374 36.2296 93.8823 36.3816 94.2947C36.5336 94.7083 36.7505 95.066 37.0327 95.37C37.3149 95.6741 37.6567 95.9133 38.0585 96.0865C38.4598 96.2597 38.9105 96.3469 39.4101 96.3469C39.9092 96.3469 40.36 96.2597 40.7618 96.0865C41.163 95.9133 41.5054 95.6741 41.7876 95.37C42.0698 95.066 42.2873 94.7083 42.4393 94.2947C42.5913 93.8823 42.6673 93.4374 42.6673 92.9602C42.6673 92.4817 42.5913 92.0369 42.4393 91.6244C42.2873 91.212 42.0698 90.8537 41.7876 90.5503C41.5054 90.2463 41.163 90.0071 40.7618 89.8338C40.36 89.6594 39.9092 89.5722 39.4101 89.5722C38.9105 89.5722 38.4598 89.6594 38.0585 89.8338C37.6567 90.0071 37.3149 90.2463 37.0327 90.5503C36.7505 90.8537 36.5336 91.212 36.3816 91.6244C36.2296 92.0369 36.1536 92.4817 36.1536 92.9602ZM35.4365 92.9602C35.4365 92.3733 35.5343 91.8342 35.73 91.3428C35.925 90.8502 36.1966 90.4254 36.5442 90.0671C36.8913 89.7089 37.3096 89.4285 37.7981 89.2246C38.2865 89.0237 38.8239 88.9211 39.4101 88.9211C39.9958 88.9211 40.5338 89.0237 41.0222 89.2246C41.5107 89.4285 41.9284 89.7089 42.2761 90.0671C42.6237 90.4254 42.8947 90.8502 43.0903 91.3428C43.2854 91.8342 43.3832 92.3733 43.3832 92.9602C43.3832 93.5452 43.2854 94.0873 43.0903 94.5834C42.8947 95.0778 42.6237 95.5055 42.2761 95.8638C41.9284 96.222 41.5107 96.5007 41.0222 96.6999C40.5338 96.899 39.9958 96.998 39.4101 96.998C38.8239 96.998 38.2865 96.899 37.7981 96.6999C37.3096 96.5007 36.8913 96.222 36.5442 95.8638C36.1966 95.5055 35.925 95.0778 35.73 94.5834C35.5343 94.0873 35.4365 93.5452 35.4365 92.9602Z" fill="#373835"/>
<path fill-rule="evenodd" clip-rule="evenodd" d="M44.9907 89.116H45.9134L50.5917 95.8471H50.6141V89.116H51.3306V96.8022H50.4079L45.7284 90.0717H45.7066V96.8022H44.9907V89.116Z" fill="#373835"/>
<path fill-rule="evenodd" clip-rule="evenodd" d="M56.8771 96.1511H58.3543C58.8604 96.1511 59.3341 96.0887 59.776 95.9614C60.2173 95.8353 60.6003 95.6409 60.9268 95.3804C61.252 95.12 61.5089 94.7895 61.6969 94.3876C61.8854 93.9858 61.9797 93.5103 61.9797 92.96C61.9797 92.4096 61.8854 91.9342 61.6969 91.5323C61.5089 91.1305 61.252 90.7993 60.9268 90.5395C60.6003 90.2779 60.2173 90.0846 59.776 89.9585C59.3341 89.8313 58.8604 89.7676 58.3543 89.7676H56.8771V96.1511ZM56.1606 89.116H58.5381C59.2045 89.116 59.769 89.1973 60.2315 89.3611C60.6946 89.5237 61.0799 89.7323 61.3887 89.9856C61.6957 90.239 61.9372 90.5195 62.1152 90.8264C62.292 91.134 62.4228 91.4286 62.5064 91.7114C62.5889 91.9943 62.6419 92.2482 62.6632 92.4768C62.6855 92.7043 62.6961 92.8657 62.6961 92.96C62.6961 93.0542 62.6855 93.2145 62.6632 93.4431C62.6419 93.67 62.5889 93.9257 62.5064 94.2085C62.4228 94.4901 62.292 94.7859 62.1152 95.0929C61.9372 95.4005 61.6957 95.6809 61.3887 95.9343C61.0799 96.1877 60.6946 96.3962 60.2315 96.5583C59.769 96.7209 59.2045 96.8022 58.5381 96.8022H56.1606V89.116Z" fill="#373835"/>
<path fill-rule="evenodd" clip-rule="evenodd" d="M64.3022 96.8022H65.0181V89.116H64.3022V96.8022Z" fill="#373835"/>
<path fill-rule="evenodd" clip-rule="evenodd" d="M67.3321 95.3806C67.5207 95.7059 67.764 95.9486 68.0645 96.1077C68.365 96.268 68.7067 96.3469 69.0903 96.3469C69.3295 96.3469 69.5534 96.3116 69.7632 96.2385C69.9741 96.1666 70.1568 96.0653 70.3123 95.9345C70.4679 95.8037 70.5899 95.647 70.6806 95.4619C70.7713 95.2769 70.8161 95.0695 70.8161 94.838C70.8161 94.5705 70.7607 94.3489 70.6488 94.1757C70.5356 94.0025 70.3866 93.8587 70.198 93.7468C70.0095 93.6348 69.7985 93.5382 69.5629 93.4598C69.3272 93.3797 69.0844 93.3007 68.8352 93.2206C68.5865 93.1405 68.3438 93.0509 68.1081 92.9496C67.8724 92.8482 67.6615 92.7151 67.4735 92.5524C67.285 92.3898 67.1353 92.1848 67.0222 91.9391C66.9102 91.694 66.8549 91.3899 66.8549 91.027C66.8549 90.6876 66.9209 90.3853 67.0552 90.1214C67.1895 89.8574 67.3698 89.6358 67.5979 89.4591C67.8253 89.2811 68.0881 89.148 68.385 89.0578C68.682 88.9671 68.9931 88.9211 69.3189 88.9211C69.7384 88.9211 70.1273 88.9966 70.485 89.1433C70.8432 89.2918 71.1531 89.5404 71.4136 89.888L70.7949 90.3335C70.6134 90.0801 70.4031 89.8892 70.1603 89.7631C69.9176 89.6359 69.63 89.5722 69.2965 89.5722C69.0644 89.5722 68.8446 89.604 68.6349 89.6653C68.4251 89.7266 68.2424 89.8173 68.0869 89.9363C67.9302 90.0565 67.8053 90.2062 67.7122 90.3877C67.6179 90.568 67.5707 90.7819 67.5707 91.027C67.5707 91.4111 67.6686 91.7057 67.8642 91.912C68.0598 92.1188 68.3037 92.2814 68.5972 92.4004C68.8906 92.5206 69.2082 92.6255 69.5523 92.7151C69.8952 92.8058 70.2145 92.9272 70.5074 93.0792C70.8008 93.2312 71.0447 93.4433 71.2403 93.7138C71.436 93.986 71.5338 94.3607 71.5338 94.838C71.5338 95.185 71.4678 95.4926 71.3382 95.7613C71.2073 96.0288 71.0318 96.255 70.8114 96.44C70.5899 96.6233 70.3359 96.7635 70.046 96.8566C69.7561 96.9509 69.4556 96.998 69.1445 96.998C68.6384 96.998 68.1717 96.9096 67.744 96.7317C67.318 96.5549 66.9515 96.2562 66.6475 95.8367L67.3321 95.3806Z" fill="#373835"/>
<path fill-rule="evenodd" clip-rule="evenodd" d="M75.8548 89.8984L74.063 94.1107H77.5912L75.8548 89.8984ZM75.5178 89.116H76.2567L79.4908 96.8022H78.6877L77.8511 94.7624H73.7802L72.9123 96.8022H72.1628L75.5178 89.116Z" fill="#373835"/>
<path fill-rule="evenodd" clip-rule="evenodd" d="M81.3123 96.1511H82.9521C83.3716 96.1511 83.7092 96.1005 83.9673 95.9991C84.2242 95.8978 84.421 95.7717 84.5589 95.6197C84.6956 95.4676 84.7887 95.3062 84.8358 95.1365C84.8829 94.9662 84.9065 94.813 84.9065 94.6751C84.9065 94.3923 84.8523 94.1508 84.7427 93.9469C84.6343 93.7454 84.4929 93.5804 84.3196 93.4537C84.1464 93.3276 83.9484 93.2345 83.7287 93.1768C83.5071 93.1191 83.2844 93.0896 83.0605 93.0896H81.3123V96.1511ZM81.3123 92.4379H82.8001C83.1689 92.4379 83.4694 92.3931 83.701 92.3024C83.9319 92.2117 84.1134 92.1021 84.2442 91.9719C84.3739 91.8422 84.4611 91.702 84.5047 91.5535C84.5483 91.405 84.5695 91.2695 84.5695 91.147C84.5695 90.8783 84.5247 90.6568 84.434 90.4794C84.3432 90.3015 84.2218 90.1612 84.0698 90.0563C83.9178 89.9515 83.7399 89.876 83.5378 89.8336C83.3351 89.79 83.1218 89.7676 82.8979 89.7676H81.3123V92.4379ZM80.5964 89.116H82.8107C83.1006 89.116 83.394 89.1395 83.691 89.1867C83.9862 89.2338 84.2525 89.3316 84.4882 89.4801C84.7227 89.6286 84.9148 89.8348 85.0632 90.0988C85.2117 90.3639 85.2854 90.7121 85.2854 91.147C85.2854 91.537 85.1699 91.8776 84.9383 92.1669C84.7073 92.4568 84.3632 92.6489 83.9072 92.742V92.7643C84.1606 92.7856 84.3915 92.8457 84.6025 92.9435C84.8122 93.0413 84.9925 93.1709 85.1445 93.3347C85.296 93.4973 85.4138 93.69 85.4975 93.9151C85.5811 94.139 85.6224 94.3853 85.6224 94.6528C85.6224 95.0941 85.5375 95.4547 85.3667 95.7328C85.197 96.0121 84.9843 96.2313 84.7274 96.3903C84.4693 96.5488 84.1912 96.6573 83.8907 96.7162C83.5908 96.7739 83.3103 96.8022 83.0499 96.8022H80.5964V89.116Z" fill="#373835"/>
<path fill-rule="evenodd" clip-rule="evenodd" d="M87.4353 96.8022H88.1512V89.116H87.4353V96.8022Z" fill="#373835"/>
<path fill-rule="evenodd" clip-rule="evenodd" d="M90.2595 89.116H90.976V96.1511H94.5578V96.8022H90.2595V89.116Z" fill="#373835"/>
<path fill-rule="evenodd" clip-rule="evenodd" d="M95.687 96.8022H96.4035V89.116H95.687V96.8022Z" fill="#373835"/>
<path fill-rule="evenodd" clip-rule="evenodd" d="M100.215 89.7676H97.5884V89.116H103.558V89.7676H100.932V96.8022H100.215V89.7676Z" fill="#373835"/>
<path fill-rule="evenodd" clip-rule="evenodd" d="M106.447 93.4914L103.624 89.116H104.482L106.805 92.7643L109.182 89.116H109.985L107.163 93.4914V96.8022H106.447V93.4914Z" fill="#373835"/>
<path fill-rule="evenodd" clip-rule="evenodd" d="M8.23007 60.659L0 50.1081L64.2414 0L72.4709 10.5504L8.23007 60.659Z" fill="#612968"/>
<path fill-rule="evenodd" clip-rule="evenodd" d="M72.4716 10.5504L31.6435 61.8451L23.4141 51.2947L64.2421 0L72.4716 10.5504Z" fill="#8D2556"/>
<path fill-rule="evenodd" clip-rule="evenodd" d="M31.6435 61.845L23.4141 51.2946L79.1503 7.81982L87.3797 18.3708L31.6435 61.845Z" fill="#9E272B"/>
<path fill-rule="evenodd" clip-rule="evenodd" d="M87.3785 18.3708L54.9014 63.3144L46.6719 52.7641L79.1491 7.81982L87.3785 18.3708Z" fill="#C02536"/>
<path fill-rule="evenodd" clip-rule="evenodd" d="M54.9014 63.3146L46.6719 52.7643L92.9595 16.6599L101.189 27.2109L54.9014 63.3146Z" fill="#C92C2B"/>
<path fill-rule="evenodd" clip-rule="evenodd" d="M101.19 27.2109L77.9352 64.6598L69.6309 54.1607L92.9606 16.6599L101.19 27.2109Z" fill="#CB372F"/>
<path fill-rule="evenodd" clip-rule="evenodd" d="M77.8609 64.7115L69.6309 54.1606L106.805 25.165L115.035 35.7154L77.8609 64.7115Z" fill="#DA402C"/>
<path fill-rule="evenodd" clip-rule="evenodd" d="M115.034 35.7154L102.156 64.8076L93.9487 54.2996L106.804 25.165L115.034 35.7154Z" fill="#D5702D"/>
<path fill-rule="evenodd" clip-rule="evenodd" d="M102.156 64.8077L93.9487 54.2998L121.358 32.8608L129.587 43.4118L102.156 64.8077Z" fill="#E0732B"/>
<path fill-rule="evenodd" clip-rule="evenodd" d="M129.587 43.4118L124.938 66.1111L116.708 55.5607L121.358 32.8608L129.587 43.4118Z" fill="#E19130"/>
<path fill-rule="evenodd" clip-rule="evenodd" d="M124.938 66.1109L116.708 55.5606L132.77 43.0322L141 53.5826L124.938 66.1109Z" fill="#ECA32F"/>
<path fill-rule="evenodd" clip-rule="evenodd" d="M129.587 43.4116L116.708 55.5605L129.075 45.9146L129.587 43.4116Z" fill="#CB7831"/>
<path fill-rule="evenodd" clip-rule="evenodd" d="M93.9487 54.2996L113.618 38.9147L115.034 35.7153L93.9487 54.2996Z" fill="#CB662D"/>
<path fill-rule="evenodd" clip-rule="evenodd" d="M101.19 27.2109L69.6309 54.1608L98.409 31.7143L101.19 27.2109Z" fill="#BF2C2E"/>
<path fill-rule="evenodd" clip-rule="evenodd" d="M46.6719 52.7641L83.0037 24.425L87.3785 18.3708L46.6719 52.7641Z" fill="#AA2833"/>
<path fill-rule="evenodd" clip-rule="evenodd" d="M23.4141 51.2947L67.2683 17.0882L72.4716 10.5503L23.4141 51.2947Z" fill="#7B1E26"/>
<path fill-rule="evenodd" clip-rule="evenodd" d="M106.805 25.165L83.7734 60.0992L95.3879 51.0401L106.805 25.165Z" fill="#CB3534"/>
<path fill-rule="evenodd" clip-rule="evenodd" d="M92.9605 16.6599L60.8174 58.7011L72.2516 49.9478L92.9605 16.6599Z" fill="#B72538"/>
<path fill-rule="evenodd" clip-rule="evenodd" d="M121.359 32.8608L108.219 60.0787L117.221 53.0583L121.359 32.8608Z" fill="#D2662C"/>
<path fill-rule="evenodd" clip-rule="evenodd" d="M64.2414 0L13.55 56.5092L28.6167 44.7569L64.2414 0Z" fill="#4F2555"/>
<path fill-rule="evenodd" clip-rule="evenodd" d="M79.1489 7.81982L37.2131 57.5001L51.0466 46.71L79.1489 7.81982Z" fill="#8E2329"/>
</svg>
