<svg width="158" height="43" viewBox="0 0 158 43" fill="none" xmlns="http://www.w3.org/2000/svg">
<path fill-rule="evenodd" clip-rule="evenodd" d="M96.9691 11.3975L95.7627 8.42851H95.7451L94.5206 11.3975H96.9691ZM95.398 7.29529H96.192L98.9605 13.7637H97.9376L97.2885 12.1648H94.2103L93.5698 13.7637H92.5469L95.398 7.29529Z" fill="#363734"/>
<path fill-rule="evenodd" clip-rule="evenodd" d="M100.56 7.29529V11.2605C100.56 11.462 100.587 11.6699 100.642 11.8862C100.697 12.1032 100.788 12.3025 100.916 12.4849C101.044 12.6673 101.211 12.8169 101.418 12.9329C101.625 13.0479 101.881 13.1063 102.186 13.1063C102.49 13.1063 102.746 13.0479 102.953 12.9329C103.16 12.8169 103.328 12.6673 103.455 12.4849C103.583 12.3025 103.674 12.1032 103.73 11.8862C103.784 11.6699 103.811 11.462 103.811 11.2605V7.29529H104.689V11.3975C104.689 11.7752 104.625 12.118 104.497 12.4254C104.369 12.7329 104.192 12.9992 103.967 13.2252C103.742 13.4505 103.477 13.6239 103.172 13.7457C102.867 13.8679 102.538 13.9281 102.186 13.9281C101.833 13.9281 101.504 13.8679 101.199 13.7457C100.894 13.6239 100.629 13.4505 100.404 13.2252C100.179 12.9992 100.002 12.7329 99.8736 12.4254C99.7461 12.118 99.6826 11.7752 99.6826 11.3975V7.29529H100.56Z" fill="#363734"/>
<path fill-rule="evenodd" clip-rule="evenodd" d="M106.424 12.4113C106.583 12.6492 106.785 12.8247 107.031 12.9368C107.278 13.05 107.532 13.1062 107.795 13.1062C107.94 13.1062 108.09 13.0835 108.242 13.0381C108.395 12.9912 108.533 12.9231 108.658 12.8319C108.782 12.7407 108.884 12.6276 108.964 12.4938C109.043 12.3598 109.083 12.2044 109.083 12.0278C109.083 11.778 109.003 11.5877 108.845 11.4569C108.687 11.326 108.49 11.2168 108.256 11.1278C108.021 11.0395 107.765 10.9544 107.488 10.8719C107.211 10.7897 106.955 10.6758 106.721 10.5298C106.486 10.3831 106.29 10.187 106.131 9.94012C105.973 9.6943 105.895 9.36018 105.895 8.93991C105.895 8.7514 105.935 8.55027 106.018 8.33725C106.1 8.12387 106.229 7.92887 106.406 7.75226C106.583 7.576 106.809 7.42822 107.086 7.30928C107.364 7.19033 107.697 7.13086 108.087 7.13086C108.44 7.13086 108.778 7.18024 109.1 7.27756C109.424 7.37452 109.707 7.57276 109.951 7.8712L109.238 8.51963C109.128 8.34914 108.973 8.21218 108.772 8.10909C108.571 8.00492 108.343 7.95338 108.087 7.95338C107.844 7.95338 107.64 7.9851 107.48 8.04962C107.318 8.11306 107.188 8.19524 107.091 8.29544C106.994 8.39672 106.924 8.50485 106.886 8.62056C106.846 8.73554 106.826 8.84259 106.826 8.93991C106.826 9.21456 106.905 9.4247 107.063 9.57031C107.222 9.71701 107.418 9.83488 107.653 9.92715C107.887 10.0183 108.143 10.1005 108.421 10.173C108.697 10.2465 108.953 10.3485 109.188 10.4793C109.422 10.6102 109.619 10.7868 109.777 11.0099C109.935 11.2319 110.014 11.538 110.014 11.9276C110.014 12.2379 109.955 12.5183 109.836 12.7685C109.718 13.0183 109.557 13.2284 109.357 13.3989C109.156 13.5694 108.918 13.7002 108.644 13.7914C108.37 13.8826 108.077 13.928 107.767 13.928C107.353 13.928 106.96 13.8549 106.588 13.7092C106.217 13.5625 105.921 13.3373 105.702 13.0331L106.424 12.4113Z" fill="#363734"/>
<path fill-rule="evenodd" clip-rule="evenodd" d="M112.664 8.11817H110.58V7.29529H115.624V8.11817H113.54V13.7637H112.664V8.11817Z" fill="#363734"/>
<path fill-rule="evenodd" clip-rule="evenodd" d="M117.433 10.1464H118.585C118.755 10.1464 118.924 10.1323 119.092 10.1049C119.259 10.0779 119.408 10.0274 119.54 9.95425C119.67 9.88072 119.775 9.77547 119.855 9.63887C119.933 9.5019 119.973 9.32348 119.973 9.10433C119.973 8.88555 119.933 8.70713 119.855 8.57016C119.775 8.4332 119.67 8.32831 119.54 8.25478C119.408 8.18161 119.259 8.13187 119.092 8.10411C118.924 8.07636 118.755 8.06266 118.585 8.06266H117.433V10.1464ZM116.557 7.29529H118.831C119.245 7.29529 119.586 7.35188 119.855 7.46469C120.122 7.57787 120.334 7.72061 120.489 7.89398C120.645 8.06771 120.753 8.26271 120.813 8.47897C120.875 8.69524 120.905 8.90321 120.905 9.10433C120.905 9.31159 120.869 9.51091 120.796 9.70338C120.722 9.89442 120.617 10.0681 120.48 10.2239C120.343 10.3792 120.176 10.51 119.978 10.6164C119.779 10.7234 119.559 10.7887 119.315 10.8125L121.152 13.7637H120.055L118.411 10.9137H117.433V13.7637H116.557V7.29529Z" fill="#363734"/>
<path fill-rule="evenodd" clip-rule="evenodd" d="M125.738 11.3975L124.531 8.42851H124.514L123.289 11.3975H125.738ZM124.167 7.29529H124.961L127.729 13.7637H126.707L126.057 12.1648H122.979L122.339 13.7637H121.315L124.167 7.29529Z" fill="#363734"/>
<path fill-rule="evenodd" clip-rule="evenodd" d="M128.57 7.29529H129.447V12.9419H132.417V13.7637H128.57V7.29529Z" fill="#363734"/>
<path fill-rule="evenodd" clip-rule="evenodd" d="M133.312 13.7637H134.188V7.29529H133.312V13.7637Z" fill="#363734"/>
<path fill-rule="evenodd" clip-rule="evenodd" d="M139.451 11.3975L138.244 8.42851H138.226L137.002 11.3975H139.451ZM137.879 7.29529H138.673L141.442 13.7637H140.419L139.77 12.1648H136.692L136.052 13.7637H135.028L137.879 7.29529Z" fill="#363734"/>
<path fill-rule="evenodd" clip-rule="evenodd" d="M142.283 7.29529H143.434L146.997 12.6129H147.016V7.29529H147.892V13.7637H146.778L143.179 8.44725H143.159V13.7637H142.283V7.29529Z" fill="#363734"/>
<path fill-rule="evenodd" clip-rule="evenodd" d="M93.3691 17.4463H94.52L98.0826 22.7639H98.1017V17.4463H98.9779V23.9147H97.8638L94.2641 18.5983H94.2454V23.9147H93.3691V17.4463Z" fill="#363734"/>
<path fill-rule="evenodd" clip-rule="evenodd" d="M100.642 17.4463H104.816V18.2692H101.518V20.1964H104.588V21.019H101.518V23.0929H104.981V23.9147H100.642V17.4463Z" fill="#363734"/>
<path fill-rule="evenodd" clip-rule="evenodd" d="M107.576 18.2692H105.492V17.4463H110.536V18.2692H108.452V23.9147H107.576V18.2692Z" fill="#363734"/>
<path fill-rule="evenodd" clip-rule="evenodd" d="M110.645 17.4463H111.559L112.988 22.6179H113.006L114.528 17.4463H115.533L117.054 22.6179H117.072L118.502 17.4463H119.416L117.533 23.9147H116.602L115.039 18.6339H115.021L113.468 23.9147H112.536L110.645 17.4463Z" fill="#363734"/>
<path fill-rule="evenodd" clip-rule="evenodd" d="M123.225 23.2574C123.597 23.2574 123.932 23.1892 124.23 23.0512C124.528 22.9146 124.784 22.73 124.997 22.4993C125.21 22.2672 125.375 21.9947 125.49 21.6815C125.606 21.3679 125.665 21.0338 125.665 20.6809C125.665 20.3281 125.606 19.9943 125.49 19.6807C125.375 19.3664 125.21 19.0939 124.997 18.8629C124.784 18.6311 124.528 18.4466 124.23 18.31C123.932 18.173 123.597 18.1045 123.225 18.1045C122.853 18.1045 122.518 18.173 122.22 18.31C121.921 18.4466 121.665 18.6311 121.452 18.8629C121.239 19.0939 121.075 19.3664 120.959 19.6807C120.844 19.9943 120.785 20.3281 120.785 20.6809C120.785 21.0338 120.844 21.3679 120.959 21.6815C121.075 21.9947 121.239 22.2672 121.452 22.4993C121.665 22.73 121.921 22.9146 122.22 23.0512C122.518 23.1892 122.853 23.2574 123.225 23.2574ZM123.225 24.0795C122.731 24.0795 122.277 23.993 121.864 23.8186C121.45 23.6452 121.095 23.4062 120.799 23.102C120.504 22.7974 120.273 22.4377 120.105 22.0243C119.938 21.6098 119.854 21.1618 119.854 20.6809C119.854 20.2001 119.938 19.7521 120.105 19.3379C120.273 18.9234 120.504 18.5648 120.799 18.2602C121.095 17.9549 121.45 17.716 121.864 17.5426C122.277 17.3692 122.731 17.282 123.225 17.282C123.719 17.282 124.172 17.3692 124.586 17.5426C125 17.716 125.355 17.9549 125.65 18.2602C125.946 18.5648 126.177 18.9234 126.345 19.3379C126.512 19.7521 126.596 20.2001 126.596 20.6809C126.596 21.1618 126.512 21.6098 126.345 22.0243C126.177 22.4377 125.946 22.7974 125.65 23.102C125.355 23.4062 125 23.6452 124.586 23.8186C124.172 23.993 123.719 24.0795 123.225 24.0795Z" fill="#363734"/>
<path fill-rule="evenodd" clip-rule="evenodd" d="M128.734 20.2974H129.886C130.056 20.2974 130.224 20.2837 130.392 20.2559C130.56 20.2289 130.708 20.1784 130.84 20.1049C130.971 20.0317 131.076 19.9268 131.155 19.7899C131.234 19.6529 131.273 19.4745 131.273 19.2557C131.273 19.0365 131.234 18.8581 131.155 18.7212C131.076 18.5846 130.971 18.4793 130.84 18.4058C130.708 18.3326 130.56 18.2832 130.392 18.2551C130.224 18.2274 130.056 18.2137 129.886 18.2137H128.734V20.2974ZM127.857 17.4463H130.131C130.546 17.4463 130.887 17.5029 131.155 17.6157C131.423 17.7289 131.634 17.8716 131.79 18.045C131.946 18.2187 132.054 18.4137 132.114 18.63C132.175 18.8462 132.205 19.0542 132.205 19.2557C132.205 19.4626 132.169 19.6619 132.096 19.8544C132.023 20.0454 131.918 20.2192 131.781 20.3749C131.644 20.5302 131.477 20.661 131.278 20.7674C131.08 20.8744 130.86 20.9397 130.616 20.9635L132.452 23.9147H131.355L129.712 21.0647H128.734V23.9147H127.857V17.4463Z" fill="#363734"/>
<path fill-rule="evenodd" clip-rule="evenodd" d="M133.439 17.4463H134.316V20.2419H134.389L137.249 17.4463H138.473L135.349 20.4343L138.683 23.9147H137.404L134.389 20.6809H134.316V23.9147H133.439V17.4463Z" fill="#363734"/>
<path fill-rule="evenodd" clip-rule="evenodd" d="M93.6066 30.8323C93.6066 31.2335 93.6711 31.6083 93.799 31.9554C93.9266 32.3032 94.1094 32.6046 94.3473 32.8605C94.5841 33.116 94.8724 33.3172 95.2105 33.4631C95.5486 33.6088 95.9274 33.6823 96.3477 33.6823C96.768 33.6823 97.1464 33.6088 97.4845 33.4631C97.8226 33.3172 98.111 33.116 98.3481 32.8605C98.586 32.6046 98.7684 32.3032 98.8964 31.9554C99.024 31.6083 99.0885 31.2335 99.0885 30.8323C99.0885 30.4297 99.024 30.0548 98.8964 29.7081C98.7684 29.361 98.586 29.0596 98.3481 28.8037C98.111 28.5482 97.8226 28.3467 97.4845 28.2011C97.1464 28.0544 96.768 27.9812 96.3477 27.9812C95.9274 27.9812 95.5486 28.0544 95.2105 28.2011C94.8724 28.3467 94.5841 28.5482 94.3473 28.8037C94.1094 29.0596 93.9266 29.361 93.799 29.7081C93.6711 30.0548 93.6066 30.4297 93.6066 30.8323ZM93.0039 30.8323C93.0039 30.3385 93.0861 29.8843 93.2508 29.4709C93.4152 29.0568 93.6433 28.6988 93.9356 28.3975C94.2283 28.0962 94.5801 27.8601 94.9906 27.6885C95.4019 27.5191 95.8539 27.433 96.3477 27.433C96.8411 27.433 97.2931 27.5191 97.7048 27.6885C98.1149 27.8601 98.4671 28.0962 98.7594 28.3975C99.0517 28.6988 99.2799 29.0568 99.4446 29.4709C99.609 29.8843 99.6911 30.3385 99.6911 30.8323C99.6911 31.3246 99.609 31.7806 99.4446 32.198C99.2799 32.6143 99.0517 32.9744 98.7594 33.2757C98.4671 33.577 98.1149 33.812 97.7048 33.9796C97.2931 34.1469 96.8411 34.2305 96.3477 34.2305C95.8539 34.2305 95.4019 34.1469 94.9906 33.9796C94.5801 33.812 94.2283 33.577 93.9356 33.2757C93.6433 32.9744 93.4152 32.6143 93.2508 32.198C93.0861 31.7806 93.0039 31.3246 93.0039 30.8323Z" fill="#363734"/>
<path fill-rule="evenodd" clip-rule="evenodd" d="M101.043 27.5974H101.819L105.757 33.2617H105.776V27.5974H106.378V34.0659H105.602L101.664 28.4016H101.646V34.0659H101.043V27.5974Z" fill="#363734"/>
<path fill-rule="evenodd" clip-rule="evenodd" d="M111.046 33.5176H112.289C112.716 33.5176 113.114 33.465 113.486 33.358C113.857 33.252 114.18 33.0883 114.454 32.8692C114.728 32.6501 114.944 32.3718 115.102 32.0337C115.261 31.6956 115.34 31.2952 115.34 30.8324C115.34 30.3692 115.261 29.9687 115.102 29.6307C114.944 29.2926 114.728 29.0139 114.454 28.7952C114.18 28.5749 113.857 28.4124 113.486 28.3064C113.114 28.1993 112.716 28.1456 112.289 28.1456H111.046V33.5176ZM110.443 27.5974H112.444C113.005 27.5974 113.48 27.6659 113.869 27.8036C114.259 27.9406 114.583 28.1161 114.843 28.3291C115.102 28.5421 115.305 28.7782 115.455 29.037C115.603 29.2958 115.713 29.5434 115.784 29.7813C115.853 30.0192 115.898 30.2333 115.916 30.4258C115.934 30.6172 115.943 30.7531 115.943 30.8324C115.943 30.9117 115.934 31.0461 115.916 31.2386C115.898 31.43 115.853 31.6451 115.784 31.883C115.713 32.1198 115.603 32.3686 115.455 32.6273C115.305 32.8861 115.102 33.1222 114.843 33.3352C114.583 33.5483 114.259 33.7238 113.869 33.8608C113.48 33.9974 113.005 34.0659 112.444 34.0659H110.443V27.5974Z" fill="#363734"/>
<path fill-rule="evenodd" clip-rule="evenodd" d="M117.296 34.0659H117.899V27.5974H117.296V34.0659Z" fill="#363734"/>
<path fill-rule="evenodd" clip-rule="evenodd" d="M119.845 32.8691C120.003 33.1427 120.208 33.3471 120.461 33.4808C120.714 33.6156 121.002 33.6823 121.325 33.6823C121.526 33.6823 121.714 33.6524 121.891 33.5911C122.068 33.5305 122.222 33.4451 122.352 33.3352C122.483 33.2252 122.586 33.0933 122.663 32.9376C122.739 32.7819 122.777 32.6075 122.777 32.4121C122.777 32.1872 122.73 32.0008 122.636 31.8552C122.541 31.7092 122.415 31.5885 122.256 31.4944C122.098 31.4 121.92 31.3189 121.722 31.2526C121.524 31.1852 121.319 31.1185 121.109 31.0511C120.9 30.9837 120.696 30.9083 120.498 30.8233C120.299 30.7379 120.122 30.6258 119.963 30.4891C119.805 30.3522 119.679 30.1799 119.584 29.9726C119.49 29.7665 119.443 29.5106 119.443 29.2053C119.443 28.9198 119.499 28.665 119.612 28.4429C119.725 28.2209 119.876 28.0346 120.069 27.8861C120.26 27.7361 120.481 27.624 120.731 27.548C120.981 27.4716 121.242 27.433 121.517 27.433C121.87 27.433 122.197 27.4964 122.498 27.6201C122.8 27.7451 123.06 27.9542 123.28 28.2469L122.759 28.6214C122.606 28.4083 122.429 28.2476 122.225 28.1416C122.021 28.0346 121.779 27.9812 121.498 27.9812C121.303 27.9812 121.117 28.0079 120.941 28.0594C120.764 28.111 120.611 28.1874 120.48 28.2872C120.348 28.3885 120.243 28.5143 120.165 28.6671C120.085 28.8189 120.046 28.9991 120.046 29.2053C120.046 29.5286 120.128 29.7762 120.293 29.9499C120.457 30.1244 120.662 30.261 120.909 30.3612C121.156 30.4625 121.424 30.5504 121.713 30.6258C122.002 30.7022 122.27 30.8045 122.517 30.9321C122.764 31.0601 122.969 31.2385 123.134 31.4667C123.298 31.6955 123.38 32.0109 123.38 32.4121C123.38 32.7048 123.325 32.9636 123.216 33.1896C123.106 33.4145 122.958 33.6048 122.773 33.7605C122.586 33.9151 122.372 34.033 122.129 34.1112C121.885 34.1909 121.632 34.2305 121.37 34.2305C120.944 34.2305 120.551 34.1559 120.192 34.0063C119.833 33.8575 119.524 33.6059 119.269 33.253L119.845 32.8691Z" fill="#363734"/>
<path fill-rule="evenodd" clip-rule="evenodd" d="M127.018 28.2559L125.51 31.8005H128.479L127.018 28.2559ZM126.734 27.5974H127.356L130.078 34.0659H129.402L128.698 32.3487H125.272L124.542 34.0659H123.911L126.734 27.5974Z" fill="#363734"/>
<path fill-rule="evenodd" clip-rule="evenodd" d="M131.611 33.5176H132.991C133.344 33.5176 133.629 33.4751 133.846 33.3897C134.062 33.3046 134.228 33.1983 134.344 33.0707C134.459 32.9427 134.537 32.8068 134.576 32.6641C134.616 32.5203 134.636 32.3916 134.636 32.2756C134.636 32.0377 134.59 31.8344 134.498 31.6628C134.407 31.4934 134.288 31.3546 134.142 31.2476C133.996 31.1416 133.83 31.063 133.645 31.0147C133.458 30.9661 133.271 30.9412 133.082 30.9412H131.611V33.5176ZM131.611 30.393H132.864C133.174 30.393 133.427 30.3555 133.622 30.2791C133.816 30.2027 133.969 30.1104 134.079 30.0005C134.188 29.8912 134.261 29.7734 134.298 29.6487C134.335 29.5236 134.353 29.4097 134.353 29.3066C134.353 29.0806 134.315 28.8943 134.238 28.7443C134.162 28.5947 134.06 28.4769 133.932 28.3886C133.804 28.3003 133.654 28.2368 133.484 28.2011C133.313 28.1644 133.134 28.1456 132.946 28.1456H131.611V30.393ZM131.009 27.5974H132.872C133.116 27.5974 133.363 27.6172 133.613 27.6569C133.862 27.6965 134.086 27.7791 134.284 27.9038C134.481 28.0289 134.643 28.2022 134.768 28.4243C134.893 28.6474 134.955 28.9408 134.955 29.3066C134.955 29.6346 134.858 29.9212 134.663 30.1648C134.468 30.4088 134.179 30.5703 133.795 30.6489V30.6676C134.008 30.6853 134.203 30.7361 134.38 30.8183C134.557 30.9005 134.708 31.0097 134.836 31.1474C134.964 31.2843 135.063 31.4469 135.134 31.6361C135.204 31.8243 135.239 32.0315 135.239 32.2568C135.239 32.6284 135.167 32.9319 135.024 33.1658C134.881 33.4008 134.701 33.585 134.485 33.7188C134.268 33.8528 134.034 33.944 133.781 33.9934C133.529 34.0421 133.293 34.0659 133.074 34.0659H131.009V27.5974Z" fill="#363734"/>
<path fill-rule="evenodd" clip-rule="evenodd" d="M136.765 34.0659H137.367V27.5974H136.765V34.0659Z" fill="#363734"/>
<path fill-rule="evenodd" clip-rule="evenodd" d="M139.141 27.5974H139.743V33.5176H142.758V34.0659H139.141V27.5974Z" fill="#363734"/>
<path fill-rule="evenodd" clip-rule="evenodd" d="M143.708 34.0659H144.311V27.5974H143.708V34.0659Z" fill="#363734"/>
<path fill-rule="evenodd" clip-rule="evenodd" d="M147.518 28.1456H145.308V27.5974H150.332V28.1456H148.121V34.0659H147.518V28.1456Z" fill="#363734"/>
<path fill-rule="evenodd" clip-rule="evenodd" d="M152.762 31.2793L150.387 27.5974H151.108L153.063 30.6676L155.064 27.5974H155.74L153.365 31.2793V34.0659H152.762V31.2793Z" fill="#363734"/>
<path fill-rule="evenodd" clip-rule="evenodd" d="M6.57488 38.1255L1.61523 31.767L40.33 1.56934L45.2897 7.92785L6.57488 38.1255Z" fill="#612968"/>
<path fill-rule="evenodd" clip-rule="evenodd" d="M45.2893 7.92785L20.6843 38.8406L15.7246 32.4821L40.3297 1.56934L45.2893 7.92785Z" fill="#8D2556"/>
<path fill-rule="evenodd" clip-rule="evenodd" d="M20.6843 38.8406L15.7246 32.4821L49.314 6.28247L54.2736 12.6406L20.6843 38.8406Z" fill="#9E272B"/>
<path fill-rule="evenodd" clip-rule="evenodd" d="M54.2741 12.6406L34.7018 39.7262L29.7422 33.3677L49.3144 6.28247L54.2741 12.6406Z" fill="#C02536"/>
<path fill-rule="evenodd" clip-rule="evenodd" d="M34.7018 39.7262L29.7422 33.3677L57.6373 11.6094L62.5966 17.9679L34.7018 39.7262Z" fill="#C92C2B"/>
<path fill-rule="evenodd" clip-rule="evenodd" d="M62.5967 17.9679L48.5825 40.5368L43.5781 34.2093L57.6374 11.6094L62.5967 17.9679Z" fill="#CB372F"/>
<path fill-rule="evenodd" clip-rule="evenodd" d="M48.5374 40.5678L43.5781 34.2093L65.9809 16.7349L70.9405 23.0934L48.5374 40.5678Z" fill="#DA402C"/>
<path fill-rule="evenodd" clip-rule="evenodd" d="M70.9403 23.0934L63.1797 40.6259L58.2334 34.293L65.9807 16.7349L70.9403 23.0934Z" fill="#D5702D"/>
<path fill-rule="evenodd" clip-rule="evenodd" d="M63.1797 40.6258L58.2334 34.2929L74.7513 21.3729L79.7109 27.7311L63.1797 40.6258Z" fill="#E0732B"/>
<path fill-rule="evenodd" clip-rule="evenodd" d="M79.7109 27.7311L76.9089 41.4112L71.9492 35.0527L74.7513 21.3729L79.7109 27.7311Z" fill="#E19130"/>
<path fill-rule="evenodd" clip-rule="evenodd" d="M76.9089 41.4112L71.9492 35.0527L81.6292 27.5026L86.5888 33.8611L76.9089 41.4112Z" fill="#ECA32F"/>
<path fill-rule="evenodd" clip-rule="evenodd" d="M79.7109 27.7311L71.9492 35.0527L79.402 29.2399L79.7109 27.7311Z" fill="#CB7831"/>
<path fill-rule="evenodd" clip-rule="evenodd" d="M58.2334 34.293L70.0868 25.0214L70.9403 23.0934L58.2334 34.293Z" fill="#CB662D"/>
<path fill-rule="evenodd" clip-rule="evenodd" d="M62.5967 17.9679L43.5781 34.2093L60.921 20.682L62.5967 17.9679Z" fill="#BF2C2E"/>
<path fill-rule="evenodd" clip-rule="evenodd" d="M29.7422 33.3677L51.6374 16.2894L54.2741 12.6406L29.7422 33.3677Z" fill="#AA2833"/>
<path fill-rule="evenodd" clip-rule="evenodd" d="M15.7246 32.4821L42.1535 11.8675L45.2893 7.92786L15.7246 32.4821Z" fill="#7B1E26"/>
<path fill-rule="evenodd" clip-rule="evenodd" d="M65.9804 16.7349L52.1006 37.7881L59.1 32.3286L65.9804 16.7349Z" fill="#CB3534"/>
<path fill-rule="evenodd" clip-rule="evenodd" d="M57.6373 11.6094L38.2666 36.9454L45.1571 31.6704L57.6373 11.6094Z" fill="#B72538"/>
<path fill-rule="evenodd" clip-rule="evenodd" d="M74.7515 21.3729L66.833 37.7758L72.258 33.545L74.7515 21.3729Z" fill="#D2662C"/>
<path fill-rule="evenodd" clip-rule="evenodd" d="M40.3303 1.56934L9.78125 35.6244L18.8611 28.5421L40.3303 1.56934Z" fill="#4F2555"/>
<path fill-rule="evenodd" clip-rule="evenodd" d="M49.3146 6.28247L24.042 36.2217L32.379 29.719L49.3146 6.28247Z" fill="#8E2329"/>
</svg>
