<svg width="32" height="22" viewBox="0 0 32 22" fill="none" xmlns="http://www.w3.org/2000/svg">
<path d="M31.9762 2.14638C31.9762 2.11217 32.0014 2.07887 31.9997 2.04504L22.2344 10.8489L31.988 19.3716C31.9937 19.3107 31.9762 19.2493 31.9762 19.1872V2.14638Z" fill="#3D3D3D"/>
<path d="M20.744 12.2037L16.7575 15.7924C16.5558 15.974 16.2953 16.065 16.0346 16.065C15.7793 16.065 15.5241 15.9779 15.3237 15.8032L11.3481 12.3369L1.53076 21.1908C1.76947 21.271 2.0257 21.3333 2.29403 21.3333H29.7753C30.1737 21.3333 30.5474 21.2198 30.8723 21.0504L20.744 12.2037Z" fill="#3D3D3D"/>
<path d="M16.0229 13.746L30.9262 0.313626C30.5887 0.125919 30.196 0 29.775 0H2.29377C1.74558 0 1.24328 0.199155 0.852051 0.502895L16.0229 13.746Z" fill="#3D3D3D"/>
<path d="M0 2.47348V19.1868C0 19.3787 0.0471305 19.5637 0.0982927 19.7405L9.79382 11.0047L0 2.47348Z" fill="#3D3D3D"/>
</svg>
