<svg width="24" height="25" viewBox="0 0 24 25" fill="none" xmlns="http://www.w3.org/2000/svg">
<path d="M12 0.5C5.376 0.5 0 5.876 0 12.5C0 19.124 5.376 24.5 12 24.5C18.624 24.5 24 19.124 24 12.5C24 5.876 18.624 0.5 12 0.5ZM6.084 20.036C6.6 18.956 9.744 17.9 12 17.9C14.256 17.9 17.412 18.956 17.916 20.036C16.284 21.332 14.232 22.1 12 22.1C9.768 22.1 7.716 21.332 6.084 20.036ZM19.632 18.296C17.916 16.208 13.752 15.5 12 15.5C10.248 15.5 6.084 16.208 4.368 18.296C3.144 16.688 2.4 14.684 2.4 12.5C2.4 7.208 6.708 2.9 12 2.9C17.292 2.9 21.6 7.208 21.6 12.5C21.6 14.684 20.856 16.688 19.632 18.296ZM12 5.3C9.672 5.3 7.8 7.172 7.8 9.5C7.8 11.828 9.672 13.7 12 13.7C14.328 13.7 16.2 11.828 16.2 9.5C16.2 7.172 14.328 5.3 12 5.3ZM12 11.3C11.004 11.3 10.2 10.496 10.2 9.5C10.2 8.504 11.004 7.7 12 7.7C12.996 7.7 13.8 8.504 13.8 9.5C13.8 10.496 12.996 11.3 12 11.3Z" fill="white"/>
</svg>
