<svg width="33" height="32" viewBox="0 0 33 32" fill="none" xmlns="http://www.w3.org/2000/svg">
<path d="M16.002 0C7.16995 0 0.00195312 7.168 0.00195312 16C0.00195312 24.832 7.16995 32 16.002 32C24.834 32 32.002 24.832 32.002 16C32.002 7.168 24.834 0 16.002 0ZM8.11395 26.048C8.80195 24.608 12.994 23.2 16.002 23.2C19.01 23.2 23.218 24.608 23.89 26.048C21.714 27.776 18.978 28.8 16.002 28.8C13.026 28.8 10.29 27.776 8.11395 26.048ZM26.178 23.728C23.89 20.944 18.338 20 16.002 20C13.666 20 8.11395 20.944 5.82595 23.728C4.19395 21.584 3.20195 18.912 3.20195 16C3.20195 8.944 8.94595 3.2 16.002 3.2C23.058 3.2 28.802 8.944 28.802 16C28.802 18.912 27.81 21.584 26.178 23.728ZM16.002 6.4C12.898 6.4 10.402 8.896 10.402 12C10.402 15.104 12.898 17.6 16.002 17.6C19.106 17.6 21.602 15.104 21.602 12C21.602 8.896 19.106 6.4 16.002 6.4ZM16.002 14.4C14.674 14.4 13.602 13.328 13.602 12C13.602 10.672 14.674 9.6 16.002 9.6C17.33 9.6 18.402 10.672 18.402 12C18.402 13.328 17.33 14.4 16.002 14.4Z" fill="white"/>
</svg>
