<svg width="40" height="38" viewBox="0 0 40 38" fill="none" xmlns="http://www.w3.org/2000/svg">
<path d="M26.4262 1.5722C15.3158 -2.35686 5.70096 1.5722 1.42772 7.90235C-2.84553 14.2325 2.92336 33.8777 12.7518 37.1519C22.5803 40.4261 35.1864 33.8777 38.8186 23.4002C42.4509 12.9227 37.5367 5.50126 26.4262 1.5722Z" fill="white"/>
<path d="M23.3335 18.9995C24.7168 18.9995 25.8252 17.868 25.8252 16.4662C25.8252 15.0644 24.7168 13.9329 23.3335 13.9329C21.9502 13.9329 20.8335 15.0644 20.8335 16.4662C20.8335 17.868 21.9502 18.9995 23.3335 18.9995ZM16.6668 18.9995C18.0502 18.9995 19.1585 17.868 19.1585 16.4662C19.1585 15.0644 18.0502 13.9329 16.6668 13.9329C15.2835 13.9329 14.1668 15.0644 14.1668 16.4662C14.1668 17.868 15.2835 18.9995 16.6668 18.9995ZM16.6668 20.6884C14.7252 20.6884 10.8335 21.6764 10.8335 23.644V25.7551H22.5002V23.644C22.5002 21.6764 18.6085 20.6884 16.6668 20.6884ZM23.3335 20.6884C23.0918 20.6884 22.8168 20.7053 22.5252 20.7306C23.4918 21.44 24.1668 22.3942 24.1668 23.644V25.7551H29.1668V23.644C29.1668 21.6764 25.2752 20.6884 23.3335 20.6884Z" fill="#A22F2C"/>
</svg>
