<svg width="40" height="38" viewBox="0 0 40 38" fill="none" xmlns="http://www.w3.org/2000/svg">
<path d="M26.4262 1.5722C15.3158 -2.35686 5.70096 1.5722 1.42772 7.90235C-2.84553 14.2325 2.92336 33.8777 12.7518 37.1519C22.5803 40.4261 35.1864 33.8777 38.8186 23.4002C42.4509 12.9227 37.5367 5.50126 26.4262 1.5722Z" fill="#3D3D3D"/>
<path d="M23.3334 18.9996C24.7167 18.9996 25.825 17.868 25.825 16.4662C25.825 15.0644 24.7167 13.9329 23.3334 13.9329C21.95 13.9329 20.8334 15.0644 20.8334 16.4662C20.8334 17.868 21.95 18.9996 23.3334 18.9996ZM16.6667 18.9996C18.05 18.9996 19.1584 17.868 19.1584 16.4662C19.1584 15.0644 18.05 13.9329 16.6667 13.9329C15.2834 13.9329 14.1667 15.0644 14.1667 16.4662C14.1667 17.868 15.2834 18.9996 16.6667 18.9996ZM16.6667 20.6884C14.725 20.6884 10.8334 21.6764 10.8334 23.644V25.7551H22.5V23.644C22.5 21.6764 18.6084 20.6884 16.6667 20.6884ZM23.3334 20.6884C23.0917 20.6884 22.8167 20.7053 22.525 20.7307C23.4917 21.44 24.1667 22.3942 24.1667 23.644V25.7551H29.1667V23.644C29.1667 21.6764 25.275 20.6884 23.3334 20.6884Z" fill="#EFAB42"/>
</svg>
