<svg width="32" height="30" viewBox="0 0 32 30" fill="none" xmlns="http://www.w3.org/2000/svg">
<path d="M21.141 1.24121C12.2526 -1.86068 4.56077 1.24121 1.14218 6.23869C-2.27642 11.2362 2.33868 26.7455 10.2015 29.3304C18.0642 31.9153 28.1491 26.7455 31.0549 18.4738C33.9607 10.2021 30.0293 4.3431 21.141 1.24121Z" fill="white"/>
<path d="M18.667 14.9997C19.7737 14.9997 20.6603 14.1063 20.6603 12.9997C20.6603 11.893 19.7737 10.9997 18.667 10.9997C17.5603 10.9997 16.667 11.893 16.667 12.9997C16.667 14.1063 17.5603 14.9997 18.667 14.9997ZM13.3337 14.9997C14.4403 14.9997 15.327 14.1063 15.327 12.9997C15.327 11.893 14.4403 10.9997 13.3337 10.9997C12.227 10.9997 11.3337 11.893 11.3337 12.9997C11.3337 14.1063 12.227 14.9997 13.3337 14.9997ZM13.3337 16.333C11.7803 16.333 8.66699 17.113 8.66699 18.6663V20.333H18.0003V18.6663C18.0003 17.113 14.887 16.333 13.3337 16.333ZM18.667 16.333C18.4737 16.333 18.2537 16.3463 18.0203 16.3663C18.7937 16.9263 19.3337 17.6797 19.3337 18.6663V20.333H23.3337V18.6663C23.3337 17.113 20.2203 16.333 18.667 16.333Z" fill="#A22F2C"/>
</svg>
