<svg width="32" height="30" viewBox="0 0 32 30" fill="none" xmlns="http://www.w3.org/2000/svg">
<path d="M21.141 1.24121C12.2526 -1.86068 4.56077 1.24121 1.14218 6.23869C-2.27642 11.2362 2.33868 26.7455 10.2015 29.3304C18.0642 31.9153 28.1491 26.7455 31.0549 18.4738C33.9607 10.2021 30.0293 4.3431 21.141 1.24121Z" fill="white"/>
<g clip-path="url(#clip0_2210:4157)">
<path d="M18.666 14.9996C19.7727 14.9996 20.6594 14.1063 20.6594 12.9996C20.6594 11.893 19.7727 10.9996 18.666 10.9996C17.5594 10.9996 16.666 11.893 16.666 12.9996C16.666 14.1063 17.5594 14.9996 18.666 14.9996ZM13.3327 14.9996C14.4393 14.9996 15.326 14.1063 15.326 12.9996C15.326 11.893 14.4393 10.9996 13.3327 10.9996C12.226 10.9996 11.3327 11.893 11.3327 12.9996C11.3327 14.1063 12.226 14.9996 13.3327 14.9996ZM13.3327 16.333C11.7793 16.333 8.66602 17.113 8.66602 18.6663V20.333H17.9993V18.6663C17.9993 17.113 14.886 16.333 13.3327 16.333ZM18.666 16.333C18.4727 16.333 18.2527 16.3463 18.0194 16.3663C18.7927 16.9263 19.3327 17.6796 19.3327 18.6663V20.333H23.3327V18.6663C23.3327 17.113 20.2193 16.333 18.666 16.333Z" fill="#A22F2C"/>
</g>
<defs>
<clipPath id="clip0_2210:4157">
<rect width="16" height="16" fill="white" transform="translate(8 7.66632)"/>
</clipPath>
</defs>
</svg>
