<svg width="32" height="30" viewBox="0 0 32 30" fill="none" xmlns="http://www.w3.org/2000/svg">
<path d="M21.141 1.24121C12.2526 -1.86068 4.56077 1.24121 1.14218 6.23869C-2.27642 11.2362 2.33868 26.7455 10.2015 29.3304C18.0642 31.9153 28.1491 26.7455 31.0549 18.4738C33.9607 10.2021 30.0293 4.3431 21.141 1.24121Z" fill="#5F5B5B"/>
<path d="M18.6665 14.9996C19.7732 14.9996 20.6598 14.1063 20.6598 12.9996C20.6598 11.893 19.7732 10.9996 18.6665 10.9996C17.5598 10.9996 16.6665 11.893 16.6665 12.9996C16.6665 14.1063 17.5598 14.9996 18.6665 14.9996ZM13.3332 14.9996C14.4398 14.9996 15.3265 14.1063 15.3265 12.9996C15.3265 11.893 14.4398 10.9996 13.3332 10.9996C12.2265 10.9996 11.3332 11.893 11.3332 12.9996C11.3332 14.1063 12.2265 14.9996 13.3332 14.9996ZM13.3332 16.333C11.7798 16.333 8.6665 17.113 8.6665 18.6663V20.333H17.9998V18.6663C17.9998 17.113 14.8865 16.333 13.3332 16.333ZM18.6665 16.333C18.4732 16.333 18.2532 16.3463 18.0198 16.3663C18.7932 16.9263 19.3332 17.6796 19.3332 18.6663V20.333H23.3332V18.6663C23.3332 17.113 20.2198 16.333 18.6665 16.333Z" fill="white"/>
</svg>
