<svg width="30" height="31" viewBox="0 0 30 31" fill="none" xmlns="http://www.w3.org/2000/svg">
<path fill-rule="evenodd" clip-rule="evenodd" d="M15 30.1885C23.2875 30.1885 30 23.476 30 15.1885C30 6.90098 23.2875 0.188477 15 0.188477C6.7125 0.188477 0 6.90098 0 15.1885C0 23.476 6.7125 30.1885 15 30.1885ZM22.5478 12.811C22.5478 17.5885 18.9103 23.101 12.2578 23.101C10.2178 23.101 8.31283 22.501 6.73033 21.466C7.01533 21.5035 7.30033 21.5185 7.59283 21.5185C9.28783 21.5185 10.8478 20.941 12.0853 19.9735C10.5028 19.9435 9.16783 18.901 8.71033 17.461C8.93533 17.506 9.16033 17.5285 9.39283 17.5285C9.72283 17.5285 10.0453 17.4835 10.3453 17.401C8.68783 17.0635 7.44283 15.6085 7.44283 13.8535V13.8085C7.93033 14.0785 8.48533 14.2435 9.07783 14.2585C8.10283 13.6135 7.46533 12.5035 7.46533 11.251C7.46533 10.591 7.64533 9.9685 7.95283 9.436C9.73783 11.626 12.4003 13.066 15.4078 13.216C15.3403 12.9535 15.3103 12.676 15.3103 12.391C15.3103 10.396 16.9303 8.776 18.9253 8.776C19.9678 8.776 20.9053 9.211 21.5653 9.916C22.3903 9.751 23.1628 9.451 23.8603 9.0385C23.5903 9.886 23.0203 10.591 22.2703 11.041C23.0053 10.951 23.7028 10.756 24.3478 10.471C23.8603 11.1985 23.2453 11.836 22.5403 12.346C22.5478 12.496 22.5478 12.6535 22.5478 12.811Z" fill="white"/>
</svg>
