<svg width="18" height="18" viewBox="0 0 18 18" fill="none" xmlns="http://www.w3.org/2000/svg">
<path d="M9.0013 0.907166C4.4013 0.907166 0.667969 4.6405 0.667969 9.2405C0.667969 13.8405 4.4013 17.5738 9.0013 17.5738C13.6013 17.5738 17.3346 13.8405 17.3346 9.2405C17.3346 4.6405 13.6013 0.907166 9.0013 0.907166ZM4.89297 14.4738C5.2513 13.7238 7.43464 12.9905 9.0013 12.9905C10.568 12.9905 12.7596 13.7238 13.1096 14.4738C11.9763 15.3738 10.5513 15.9072 9.0013 15.9072C7.4513 15.9072 6.0263 15.3738 4.89297 14.4738ZM14.3013 13.2655C13.1096 11.8155 10.218 11.3238 9.0013 11.3238C7.78464 11.3238 4.89297 11.8155 3.7013 13.2655C2.8513 12.1488 2.33464 10.7572 2.33464 9.2405C2.33464 5.5655 5.3263 2.57383 9.0013 2.57383C12.6763 2.57383 15.668 5.5655 15.668 9.2405C15.668 10.7572 15.1513 12.1488 14.3013 13.2655ZM9.0013 4.2405C7.38464 4.2405 6.08464 5.5405 6.08464 7.15717C6.08464 8.77383 7.38464 10.0738 9.0013 10.0738C10.618 10.0738 11.918 8.77383 11.918 7.15717C11.918 5.5405 10.618 4.2405 9.0013 4.2405ZM9.0013 8.40717C8.30964 8.40717 7.7513 7.84883 7.7513 7.15717C7.7513 6.4655 8.30964 5.90717 9.0013 5.90717C9.69297 5.90717 10.2513 6.4655 10.2513 7.15717C10.2513 7.84883 9.69297 8.40717 9.0013 8.40717Z" fill="#FAF9F9"/>
</svg>
