<svg width="119" height="28" viewBox="0 0 119 28" fill="none" xmlns="http://www.w3.org/2000/svg">
<path fill-rule="evenodd" clip-rule="evenodd" d="M59.0926 22.4607C59.2996 21.9199 59.4036 21.0363 59.4036 19.8102V14.6437C59.4036 13.4534 59.2996 12.5835 59.0926 12.0333C58.8852 11.4835 58.52 11.2083 57.9973 11.2083C57.4923 11.2083 57.1358 11.4835 56.9287 12.0333C56.7214 12.5835 56.6177 13.4534 56.6177 14.6437V19.8102C56.6177 21.0363 56.7167 21.9199 56.9153 22.4607C57.1133 23.0018 57.4739 23.272 57.9973 23.272C58.52 23.272 58.8852 23.0018 59.0926 22.4607ZM54.9017 25.0566C54.1529 24.5522 53.6209 23.7676 53.3058 22.7034C52.9901 21.6398 52.8325 20.2241 52.8325 18.4569V16.0496C52.8325 14.2643 53.0125 12.8305 53.3733 11.7486C53.7339 10.6667 54.2971 9.87804 55.0639 9.38206C55.8302 8.88608 56.8355 8.63794 58.08 8.63794C59.3061 8.63794 60.2887 8.89075 61.0281 9.39545C61.7673 9.90045 62.3084 10.6894 62.6512 11.7623C62.9934 12.8352 63.1649 14.2643 63.1649 16.0496V18.4569C63.1649 20.2241 62.998 21.6442 62.6646 22.7171C62.3308 23.79 61.7897 24.5746 61.0415 25.0699C60.293 25.5659 59.279 25.8141 57.9987 25.8141C56.682 25.8141 55.6496 25.5612 54.9017 25.0566Z" fill="white"/>
<path fill-rule="evenodd" clip-rule="evenodd" d="M112.821 11.5174C112.632 11.7518 112.505 12.1351 112.442 12.6668C112.379 13.1989 112.348 14.0056 112.348 15.0876V16.2779H115.08V15.0876C115.08 14.024 115.043 13.217 114.972 12.6668C114.899 12.117 114.769 11.7294 114.58 11.504C114.39 11.2782 114.097 11.1655 113.7 11.1655C113.303 11.1655 113.01 11.2832 112.821 11.5174ZM112.352 18.4966V19.3351C112.352 20.3993 112.383 21.1973 112.446 21.729C112.509 22.2611 112.64 22.6488 112.838 22.8922C113.037 23.1357 113.343 23.2574 113.758 23.2574C114.317 23.2574 114.7 23.0411 114.908 22.608C115.115 22.1755 115.227 21.4541 115.245 20.4441L118.465 20.6334C118.483 20.7782 118.492 20.9765 118.492 21.2287C118.492 22.7615 118.073 23.9066 117.234 24.6641C116.396 25.421 115.209 25.7999 113.677 25.7999C111.838 25.7999 110.548 25.2233 109.809 24.0688C109.069 22.9153 108.7 21.1297 108.7 18.713V15.8187C108.7 13.3301 109.083 11.5137 109.85 10.3683C110.616 9.22345 111.928 8.65088 113.785 8.65088C115.065 8.65088 116.048 8.88532 116.733 9.3539C117.418 9.8231 117.901 10.5535 118.181 11.5449C118.46 12.5371 118.6 13.9077 118.6 15.6565V18.4966H112.352Z" fill="white"/>
<path fill-rule="evenodd" clip-rule="evenodd" d="M45.8132 18.1866L41.5664 2.84961H45.2721L46.7597 9.80138C47.1386 11.5147 47.4179 12.9753 47.5981 14.1833H47.7065C47.8326 13.3177 48.1122 11.8662 48.545 9.82847L50.0867 2.84961H53.7924L49.4918 18.1866V25.5444H45.8132V18.1866Z" fill="white"/>
<path fill-rule="evenodd" clip-rule="evenodd" d="M75.2179 8.9624V25.5435H72.2965L71.9718 23.5148H71.8908C71.0972 25.0476 69.9069 25.8138 68.3203 25.8138C67.2203 25.8138 66.4089 25.4536 65.8858 24.7319C65.3628 24.0111 65.1016 22.8837 65.1016 21.3509V8.9624H68.8343V21.1345C68.8343 21.8743 68.9156 22.4014 69.0778 22.7168C69.24 23.0325 69.5106 23.1901 69.8892 23.1901C70.2139 23.1901 70.5249 23.0914 70.8223 22.8924C71.1199 22.6944 71.3407 22.4422 71.4851 22.1355V8.9624H75.2179Z" fill="white"/>
<path fill-rule="evenodd" clip-rule="evenodd" d="M94.3663 8.96191V25.543H91.4449L91.1202 23.5143H91.0396C90.2453 25.0471 89.0553 25.8133 87.4687 25.8133C86.3687 25.8133 85.5573 25.4531 85.0343 24.7314C84.5112 24.0106 84.25 22.8832 84.25 21.3504V8.96191H87.9827V21.1341C87.9827 21.8738 88.0637 22.4009 88.2259 22.7163C88.3884 23.032 88.659 23.1896 89.0376 23.1896C89.3623 23.1896 89.6734 23.0909 89.9707 22.8919C90.2684 22.6939 90.4891 22.4417 90.6336 22.135V8.96191H94.3663Z" fill="white"/>
<path fill-rule="evenodd" clip-rule="evenodd" d="M85.3592 5.85194H81.6535V25.5437H78.002V5.85194H74.2964V2.84961H85.3592V5.85194Z" fill="white"/>
<path fill-rule="evenodd" clip-rule="evenodd" d="M103.299 18.3768C103.299 19.5851 103.249 20.5319 103.15 21.2169C103.051 21.9028 102.884 22.3894 102.649 22.6777C102.415 22.9664 102.099 23.1102 101.703 23.1102C101.396 23.1102 101.112 23.0386 100.851 22.8938C100.589 22.7497 100.378 22.5336 100.215 22.2447V12.8317C100.341 12.3815 100.558 12.0116 100.864 11.7227C101.171 11.4347 101.504 11.2902 101.865 11.2902C102.244 11.2902 102.536 11.439 102.744 11.7364C102.951 12.0337 103.096 12.5344 103.177 13.2377C103.258 13.9407 103.299 14.9417 103.299 16.24V18.3768ZM106.72 11.613C106.494 10.5675 106.129 9.81031 105.624 9.34111C105.119 8.87253 104.425 8.63809 103.542 8.63809C102.856 8.63809 102.216 8.83206 101.621 9.21938C101.026 9.60732 100.566 10.1167 100.242 10.7478H100.214L100.214 2.01074H96.6172V25.5433H99.7005L100.079 23.9748H100.16C100.449 24.5336 100.881 24.9754 101.459 25.3002C102.036 25.6246 102.676 25.7868 103.379 25.7868C104.641 25.7868 105.57 25.2052 106.165 24.0423C106.76 22.8788 107.058 21.0624 107.058 18.5919V15.9681C107.058 14.111 106.945 12.6595 106.72 11.613Z" fill="white"/>
<path fill-rule="evenodd" clip-rule="evenodd" d="M37.0336 5.10429C36.5986 3.47719 35.3171 2.19537 33.6897 1.76042C30.74 0.970215 18.9119 0.970215 18.9119 0.970215C18.9119 0.970215 7.0841 0.970215 4.13439 1.76042C2.50697 2.19537 1.22546 3.47719 0.790512 5.10429C0 8.05431 0 14.2084 0 14.2084C0 14.2084 0 20.3628 0.790512 23.3125C1.22546 24.9396 2.50697 26.2218 4.13439 26.6564C7.0841 27.4469 18.9119 27.4469 18.9119 27.4469C18.9119 27.4469 30.74 27.4469 33.6897 26.6564C35.3171 26.2218 36.5986 24.9396 37.0336 23.3125C37.8238 20.3628 37.8238 14.2084 37.8238 14.2084C37.8238 14.2084 37.8238 8.05431 37.0336 5.10429Z" fill="white"/>
<path fill-rule="evenodd" clip-rule="evenodd" d="M15.1289 19.8825V8.53516L24.9554 14.2092L15.1289 19.8825Z" fill="#545454"/>
</svg>
