<?xml version="1.0" encoding="UTF-8"?>
<svg id="Layer_1" data-name="Layer 1" xmlns="http://www.w3.org/2000/svg" width="48" height="45" viewBox="0 0 48 45">
  <defs>
    <style>
      .cls-1 {
        fill: #fff;
      }

      .cls-2 {
        fill: #a22f2c;
      }
    </style>
  </defs>
  <path class="cls-2" d="M2.08,8.48C6.68-2.74,19.64,.48,26.31,1.37s22.22,7.33,21.11,19.56c-1.11,12.22-12.89,24.67-26.89,23.78C6.53,43.81-3.47,22.03,2.08,8.48Z"/>
  <g>
    <path class="cls-1" d="M24.54,29.62c-2.22-.07-3.91-.17-5.52-.8-.21-.08-.42-.17-.62-.27-1.55-.77-2.06-1.72-1.8-3.42,.38-2.52,1.71-4.39,3.91-5.65,.31-.18,.55-.15,.85,.02,1.77,1.01,3.57,1.01,5.36,.08,.43-.22,.79-.23,1.19,.02,2.28,1.41,3.56,3.43,3.77,6.12,.08,1.07-.35,1.85-1.21,2.43-.91,.62-1.93,.96-3,1.13-1.14,.18-2.29,.27-2.93,.35Z"/>
    <path class="cls-1" d="M27.84,15.02c0,2.08-1.71,3.77-3.79,3.75-2.07-.01-3.74-1.7-3.73-3.77,0-2.11,1.65-3.76,3.77-3.76,2.11,0,3.76,1.66,3.76,3.77Z"/>
    <path class="cls-1" d="M15.72,28.14c-1.58-.05-3.07-.13-4.43-.88-1.03-.57-1.37-1.45-1.17-2.59,.31-1.8,1.22-3.17,2.8-4.09,.33-.19,.63-.2,.96,0,.84,.51,1.49,.58,2.84,.37-.03,.07-.05,.13-.08,.17-1.01,1.46-1.47,3.11-1.56,4.86-.04,.75,.23,1.43,.64,2.16Z"/>
    <path class="cls-1" d="M32.41,28.17c.97-1.53,.72-3.03,.3-4.5-.27-.94-.75-1.83-1.12-2.71,.19,.03,.49,.08,.78,.1,.68,.05,1.32-.1,1.91-.45,.37-.22,.71-.22,1.08,0,1.66,1.02,2.57,2.48,2.71,4.43,.07,.97-.32,1.67-1.15,2.14-.79,.46-1.67,.69-2.57,.8-.61,.08-1.23,.11-1.95,.17Z"/>
    <path class="cls-1" d="M12.75,17.25c0-1.66,1.29-2.96,2.91-2.96,1.6,0,2.92,1.33,2.9,2.93-.01,1.58-1.34,2.89-2.92,2.88-1.59,0-2.9-1.29-2.89-2.84Z"/>
    <path class="cls-1" d="M29.66,17.2c0-1.59,1.29-2.9,2.88-2.91,1.61,0,2.93,1.31,2.93,2.91,0,1.58-1.33,2.89-2.91,2.9-1.58,0-2.9-1.31-2.9-2.9Z"/>
  </g>
</svg>