<svg width="456" height="420" fill="none" xmlns="http://www.w3.org/2000/svg"><path d="M580.078 259.026c-8.128-28.926-24.432-54.813-41.312-79.667a1382.296 1382.296 0 00-75.271-100.677C436.48 45.746 401.617 2.445 354.472.318c-47.345-2.134-87.31 38.044-124.657 61.432-59.575 37.32-119.74 75.33-176.23 117.221C27.81 198.08-.421 224.36 4.717 256.019c3.984 24.509 28.127 41.717 52.633 45.788 24.506 4.071 49.425-2.131 73.484-8.285l74.23-18.974c25.792-6.56 54.402-12.91 77.979-.561 44.803 23.481 38.844 93.846 76.756 127.361 35.41 31.308 90.507 16.683 134.121-1.498 29.436-12.282 60.184-26.83 77.247-53.794 16.09-25.365 17.041-58.112 8.912-87.03z" fill="#C82035"/></svg>