<?xml version="1.0" encoding="UTF-8"?>
<svg xmlns="http://www.w3.org/2000/svg" width="48" height="45" viewBox="0 0 48 45">
  <defs>
    <style>
      .cls-1 {
        fill: #fff;
      }

      .cls-2 {
        fill: #a22f2c;
      }
    </style>
  </defs>
  <g id="Layer_1" data-name="Layer 1">
    <path class="cls-2" d="M2.08,8.48C6.68-2.74,19.64,.48,26.31,1.37s22.22,7.33,21.11,19.56c-1.11,12.22-12.89,24.67-26.89,23.78C6.53,43.81-3.47,22.03,2.08,8.48Z"/>
  </g>
  <g id="Layer_2" data-name="Layer 2">
    <path class="cls-1" d="M29.88,25.92c.07,.05,.16,.1,.23,.17,1.6,1.6,3.21,3.2,4.81,4.81,1.02,1.02,.62,2.69-.73,3.11-.73,.22-1.37,.04-1.9-.5-1.6-1.6-3.21-3.2-4.81-4.81-.06-.06-.11-.15-.16-.22-2.62,1.74-5.42,2.32-8.43,1.63-2.58-.59-4.65-1.99-6.21-4.15-3-4.16-2.5-10.02,1.16-13.59,3.78-3.69,9.58-4.08,13.77-.93,4.31,3.24,5.66,9.61,2.28,14.48Zm.67-6.06c-.02-5.12-4.17-9.28-9.26-9.27-5.17,.01-9.29,4.17-9.28,9.35,.01,5.05,4.2,9.21,9.25,9.2,5.16-.01,9.31-4.15,9.29-9.28Zm-2.27,7.88c1.63,1.64,3.27,3.28,4.92,4.91,.12,.12,.36,.17,.54,.16,.25,0,.41-.18,.48-.43,.07-.26-.02-.46-.2-.64-1.6-1.6-3.2-3.2-4.8-4.8-.03-.03-.06-.05-.08-.06-.29,.29-.56,.57-.86,.87Z"/>
    <path class="cls-1" d="M23.59,15.98c-.44,.33-.91,.41-1.41,.19-.05-.02-.14,0-.19,.04-.39,.35-.77,.71-1.14,1.08-.05,.05-.07,.19-.05,.28,.17,.75-.23,1.48-.93,1.7-.69,.22-1.42-.17-1.66-.89-.03-.1-.08-.22-.07-.32,.04-.3-.12-.42-.34-.51-.06-.02-.12-.05-.17-.09-.26-.19-.48-.22-.78,0-.5,.34-1.17,.18-1.58-.27-.41-.45-.49-1.14-.19-1.68,.3-.55,.91-.82,1.5-.67,.57,.14,1,.68,1.02,1.31,0,.2,.06,.31,.23,.37,.07,.02,.13,.06,.19,.1,.3,.2,.56,.31,.91,.03,.3-.23,.69-.2,1.04-.05,.13,.06,.21,.03,.32-.06,.35-.34,.71-.66,1.05-1,.06-.06,.1-.2,.08-.29-.11-.6,.02-1.11,.49-1.48,.45-.37,.96-.41,1.46-.13,.51,.29,.73,.77,.71,1.38,0,.08,.05,.19,.11,.23,.25,.18,.52,.33,.77,.51,.13,.09,.21,.05,.32-.02,.77-.48,1.75-.08,1.98,.82,.15,.57,.02,1.07-.41,1.46-.43,.39-.92,.46-1.43,.22-.51-.24-.8-.68-.79-1.27,0-.26-.08-.39-.28-.5-.26-.15-.51-.32-.76-.48Zm-7.34-.24c-.24,0-.44,.22-.44,.47,0,.26,.21,.48,.46,.48,.24,0,.45-.24,.44-.5,0-.25-.21-.46-.45-.45Zm3.69,2.18c0-.25-.21-.47-.44-.47-.25,0-.45,.21-.45,.48,0,.25,.19,.46,.44,.47,.24,0,.46-.22,.46-.48Zm3.24-3.06c0-.25-.21-.45-.45-.45-.25,0-.46,.22-.45,.48,0,.25,.22,.45,.45,.45,.24,0,.45-.23,.44-.49Zm2.8,1.63c-.26,0-.46,.2-.46,.47,0,.26,.19,.46,.43,.47,.26,0,.46-.2,.46-.47,0-.26-.19-.46-.44-.47Z"/>
    <path class="cls-1" d="M24.01,21.89c0,.93,0,1.86,0,2.79,0,.44-.15,.59-.56,.59-.47,0-.94,0-1.41,0-.35,0-.52-.17-.52-.54,0-1.9,0-3.81,0-5.71,0-.38,.17-.55,.53-.56,.48,0,.96,0,1.44,0,.36,0,.53,.17,.53,.56,0,.96,0,1.91,0,2.87Zm-.91,2.42v-4.88h-.67v4.88h.67Z"/>
    <path class="cls-1" d="M27.31,22.24c0,.82,0,1.65,0,2.47,0,.41-.15,.56-.54,.57-.48,0-.96,0-1.44,0-.35,0-.52-.17-.52-.54,0-1.66,0-3.32,0-4.99,0-.35,.18-.53,.51-.53,.5,0,.99,0,1.49,0,.34,0,.5,.17,.5,.53,0,.83,0,1.66,0,2.49Zm-1.58,2.08h.67v-4.13h-.67v4.13Z"/>
    <path class="cls-1" d="M17.4,22.62c0,.69,0,1.38,0,2.06,0,.43-.15,.59-.57,.59-.47,0-.94,0-1.41,0-.35,0-.51-.17-.51-.54,0-1.41,0-2.82,0-4.23,0-.39,.16-.55,.53-.55,.48,0,.96,0,1.44,0,.37,0,.53,.17,.53,.55,0,.7,0,1.41,0,2.11Zm-.91,1.69v-3.4h-.67v3.4h.67Z"/>
    <path class="cls-1" d="M20.7,23.11c0,.53,0,1.06,0,1.59,0,.42-.15,.58-.55,.58-.48,0-.96,0-1.44,0-.33,0-.5-.17-.5-.52,0-1.1,0-2.2,0-3.3,0-.35,.17-.52,.5-.53,.5,0,.99,0,1.49,0,.34,0,.5,.17,.5,.52,0,.55,0,1.11,0,1.66Zm-.91,1.21v-2.43h-.67v2.43h.67Z"/>
  </g>
</svg>