<svg width="30" height="30" fill="none" xmlns="http://www.w3.org/2000/svg"><mask id="a" maskUnits="userSpaceOnUse" x="0" y="0" width="30" height="30"><path fill-rule="evenodd" clip-rule="evenodd" d="M0 0h30v30H0V0z" fill="#fff"/></mask><g mask="url(#a)"><path fill-rule="evenodd" clip-rule="evenodd" d="M30.079 15.13C30.079 6.773 23.345 0 15.039 0S0 6.774 0 15.13c0 7.553 5.5 13.812 12.69 14.948V19.504H8.87V15.13h3.82v-3.333c0-3.793 2.245-5.887 5.68-5.887 1.645 0 3.366.295 3.366.295V9.93H19.84c-1.868 0-2.45 1.166-2.45 2.363v2.838h4.17l-.666 4.374h-3.505v10.574c7.19-1.136 12.69-7.395 12.69-14.948z" fill="#fff"/></g></svg>