<svg id="Layer_1" data-name="Layer 1" xmlns="http://www.w3.org/2000/svg" viewBox="0 0 300 78"><defs><style>.cls-1{fill:#fff}</style></defs><path class="cls-1" d="M185.53 19.07l-2.35-5.82-2.39 5.82zm-3.06-8H184l5.39 12.69h-2l-1.27-3.13h-6l-1.25 3.13h-2l5.6-12.76zm10.06-.07v7.8a4.83 4.83 0 00.16 1.23 3.27 3.27 0 00.53 1.17 2.78 2.78 0 001 .88 3 3 0 001.49.34 3 3 0 001.5-.34 2.87 2.87 0 001-.88 3.46 3.46 0 00.49-1.2 4.83 4.83 0 00.16-1.23V11h1.71v8.05a5.46 5.46 0 01-.37 2 5 5 0 01-1 1.57 4.55 4.55 0 01-1.55 1 5.3 5.3 0 01-3.84 0 4.65 4.65 0 01-1.55-1 4.92 4.92 0 01-1-1.57 5.27 5.27 0 01-.37-2V11zM204 21.06a2.78 2.78 0 001.18 1 3.55 3.55 0 001.49.33 3 3 0 00.87-.13 2.58 2.58 0 00.81-.41 2.24 2.24 0 00.6-.66 1.81 1.81 0 00.23-.91 1.36 1.36 0 00-.47-1.12 4 4 0 00-1.14-.65c-.46-.17-1-.34-1.5-.5a5.75 5.75 0 01-1.49-.67 3.64 3.64 0 01-1.15-1.16 3.58 3.58 0 01-.46-2 3.31 3.31 0 01.24-1.18 3.36 3.36 0 01.75-1.15 4.51 4.51 0 011.33-.87 5 5 0 011.95-.35 6.75 6.75 0 012 .29 3.44 3.44 0 011.66 1.16l-1.39 1.28a2.25 2.25 0 00-.91-.81 2.86 2.86 0 00-1.33-.3 3.29 3.29 0 00-1.18.18 2.13 2.13 0 00-.76.49 1.67 1.67 0 00-.4.63 1.93 1.93 0 00-.12.63 1.64 1.64 0 00.46 1.24 3.65 3.65 0 001.15.7 13.23 13.23 0 001.5.48 6.12 6.12 0 011.49.6 3.47 3.47 0 011.15 1 3.08 3.08 0 01.46 1.8 3.75 3.75 0 01-1.36 3 4.16 4.16 0 01-1.39.77 5.28 5.28 0 01-1.71.27 6.3 6.3 0 01-2.29-.43 3.84 3.84 0 01-1.73-1.33l1.46-1.22zm12.1-8.42h-4.06v-1.61h9.83v1.61h-4.06v11.07h-1.71V12.64zm9.29 3.98h2.24a6.5 6.5 0 001-.08 2.79 2.79 0 00.87-.3 1.61 1.61 0 00.62-.62 2.15 2.15 0 00.23-1 2.08 2.08 0 00-.23-1 1.61 1.61 0 00-.62-.62 2.56 2.56 0 00-.87-.3 6.5 6.5 0 00-1-.08h-2.24v4.09zM223.68 11h4.43a5.21 5.21 0 012 .34 3.34 3.34 0 011.23.84 2.66 2.66 0 01.63 1.15 4.45 4.45 0 01.18 1.22 3.25 3.25 0 01-.83 2.2 3.55 3.55 0 01-1 .77 3.28 3.28 0 01-1.29.38l3.57 5.79h-2.1l-3.2-5.59h-1.91v5.59h-1.71V11zm17.89 8.07l-2.35-5.82-2.38 5.82zm-3.06-8h1.54l5.39 12.69h-2l-1.26-3.13h-6l-1.25 3.13h-2L238.51 11zm8.57-.04h1.71V22.1h5.78v1.61h-7.49V11.03zm9.24 0h1.7v12.68h-1.7V11.03zm11.95 8.04l-2.35-5.82-2.38 5.82zm-3.06-8h1.55l5.39 12.69h-2l-1.26-3.13h-6l-1.25 3.13h-2L265.21 11zm8.58-.04h2.24l6.94 10.42h.04V11.03h1.7v12.68h-2.17l-7.01-10.43h-.03v10.43h-1.71V11.03zm-95.27 19.91h2.24l6.94 10.43h.04V30.94h1.71v12.68h-2.17l-7.01-10.42h-.04v10.42h-1.71V30.94zm14.17 0h8.13v1.61h-6.43v3.78h5.98v1.62h-5.98v4.06h6.75v1.61h-8.45V30.94zm13.5 1.61h-4.06v-1.61h9.83v1.61h-4.06v11.07h-1.71V32.55zm5.98-1.61h1.78l2.78 10.14h.04l2.96-10.14h1.96l2.96 10.14h.04l2.78-10.14h1.78l-3.66 12.68h-1.82l-3.04-10.35h-.04l-3.02 10.35h-1.82l-3.68-12.68zm24.5 11.4a4.6 4.6 0 003.45-1.49 4.66 4.66 0 001-1.61 5.82 5.82 0 000-3.92 4.69 4.69 0 00-2.45-2.69 5 5 0 00-3.92 0 4.69 4.69 0 00-2.45 2.69 5.82 5.82 0 000 3.92 4.61 4.61 0 002.45 2.69 4.61 4.61 0 002 .41zm0 1.61a6.77 6.77 0 01-2.65-.51A6 6 0 01232 42a6.36 6.36 0 01-1.35-2.11 7 7 0 01-.5-2.64 6.92 6.92 0 01.5-2.63 6.3 6.3 0 011.35-2.09 6 6 0 012.07-1.4 7 7 0 015.3 0 6.15 6.15 0 012.08 1.4 6.63 6.63 0 011.35 2.12 7.11 7.11 0 01.49 2.63 7.2 7.2 0 01-.49 2.64 6.69 6.69 0 01-1.4 2.08 6.18 6.18 0 01-2.08 1.41 6.73 6.73 0 01-2.65.51zm10.73-7.42h2.24a6.5 6.5 0 001-.08 2.56 2.56 0 00.87-.3 1.61 1.61 0 00.62-.62 2.49 2.49 0 000-2.09 1.61 1.61 0 00-.62-.62 2.56 2.56 0 00-.87-.3 6.5 6.5 0 00-1-.08h-2.24v4.09zm-1.71-5.59h4.43a5.22 5.22 0 012 .33 3.34 3.34 0 011.23.84 2.66 2.66 0 01.63 1.15 4.47 4.47 0 01.18 1.23 3.36 3.36 0 01-.21 1.17 3.3 3.3 0 01-.61 1 3.56 3.56 0 01-1 .77 3.47 3.47 0 01-1.29.39l3.57 5.78h-2.13l-3.18-5.6h-1.91v5.59h-1.71V30.94zm10.88 0h1.7v5.48h.15l5.57-5.48h2.38l-6.09 5.86 6.5 6.82h-2.49l-5.87-6.34h-.15v6.34h-1.7V30.94zM179 57.19a6.37 6.37 0 00.38 2.21 5.12 5.12 0 001.07 1.77 4.82 4.82 0 001.68 1.18 5.92 5.92 0 004.43 0 4.82 4.82 0 001.68-1.18 5.28 5.28 0 001.07-1.77 6.76 6.76 0 000-4.41 5.42 5.42 0 00-1.07-1.78 5 5 0 00-1.7-1.21 5.92 5.92 0 00-4.43 0 5 5 0 00-1.68 1.18 5.26 5.26 0 00-1.07 1.82 6.31 6.31 0 00-.38 2.2zm-1.17 0a7.21 7.21 0 01.48-2.67 6.35 6.35 0 011.34-2.1 5.91 5.91 0 012.03-1.42 6.68 6.68 0 012.64-.5 6.76 6.76 0 012.68.5 6 6 0 012 1.42 6.32 6.32 0 011.33 2.1 7.21 7.21 0 01.49 2.67 7.3 7.3 0 01-.49 2.68A6.31 6.31 0 01189 62a6 6 0 01-2 1.37 6.94 6.94 0 01-2.65.49 6.86 6.86 0 01-2.64-.49 5.89 5.89 0 01-2.08-1.37 6.33 6.33 0 01-1.34-2.12 7.3 7.3 0 01-.48-2.68zm15.64-6.34h1.51l7.67 11.11h.04V50.85h1.17v12.69h-1.51l-7.67-11.12h-.04v11.12h-1.17V50.85zM213 62.46h2.42a8.31 8.31 0 002.33-.31 5.36 5.36 0 001.89-1 4.59 4.59 0 001.26-1.64 6.14 6.14 0 000-4.71 4.5 4.5 0 00-1.26-1.64 5.36 5.36 0 00-1.89-1 8.3 8.3 0 00-2.33-.32H213v10.62zm-1.17-11.61h3.89a8.34 8.34 0 012.78.4 6.46 6.46 0 011.9 1 5.16 5.16 0 011.19 1.39 7.23 7.23 0 01.64 1.46 8 8 0 01.26 1.27c0 .37.05.64.05.79s0 .42-.05.8a7.65 7.65 0 01-.26 1.26 6.77 6.77 0 01-.64 1.46 5.16 5.16 0 01-1.19 1.39 6 6 0 01-1.9 1 8.32 8.32 0 01-2.78.41h-3.89V50.85zm13.29 0h1.18v12.69h-1.18V50.85zm4.97 10.34a3 3 0 001.2 1.2 3.53 3.53 0 001.68.39 3.06 3.06 0 001.1-.18 2.47 2.47 0 00.9-.5 2.23 2.23 0 00.61-.78 2.26 2.26 0 00.22-1 1.94 1.94 0 00-.28-1.09 2.19 2.19 0 00-.74-.71 5.26 5.26 0 00-1-.47l-1.19-.4c-.41-.13-.8-.28-1.19-.44a4 4 0 01-1-.66 3 3 0 01-.74-1 3.74 3.74 0 01-.27-1.51 3.23 3.23 0 01.32-1.49 3.3 3.3 0 01.89-1.1 4.14 4.14 0 011.29-.66 5.19 5.19 0 011.53-.22 5 5 0 011.92.36 3.77 3.77 0 011.52 1.23l-1 .74a2.81 2.81 0 00-1-.94 3 3 0 00-1.41-.32 3.93 3.93 0 00-1.09.15 3.16 3.16 0 00-.9.45 2.24 2.24 0 00-.61.75 2.29 2.29 0 00-.23 1 2 2 0 00.48 1.46 3.44 3.44 0 001.2.81 12 12 0 001.57.52 7.65 7.65 0 011.56.6 3.36 3.36 0 011.2 1 3.15 3.15 0 01.48 1.85 3.34 3.34 0 01-1.18 2.65 3.9 3.9 0 01-1.25.69 4.92 4.92 0 01-1.48.23 6 6 0 01-2.3-.44 4.15 4.15 0 01-1.9-1.42l1.12-.75zm13.97-9.05l-2.94 7h5.78l-2.84-7zm-.55-1.29h1.21L250 63.54h-1.3l-1.37-3.37h-6.67l-1.42 3.37H238l5.5-12.69zM253 62.46h2.68a4.59 4.59 0 001.67-.25 2.63 2.63 0 001-.63 2 2 0 00.45-.79 2.9 2.9 0 00.12-.77 2.53 2.53 0 00-.27-1.2 2.39 2.39 0 00-.7-.81 2.85 2.85 0 00-1-.46 4.61 4.61 0 00-1.1-.14H253v5.05zm0-6.13h2.43a4.09 4.09 0 001.48-.22 2.46 2.46 0 00.89-.55 1.6 1.6 0 00.43-.69 2.42 2.42 0 00.1-.67 2.4 2.4 0 00-.22-1.1 1.86 1.86 0 00-.59-.7 2.49 2.49 0 00-.88-.37 5 5 0 00-1-.11H253v4.41zm-1.18-5.48h3.63a10 10 0 011.44.11 3.39 3.39 0 011.31.49 2.65 2.65 0 01.94 1 3.47 3.47 0 01.37 1.73 2.61 2.61 0 01-.57 1.68 2.75 2.75 0 01-1.69.95 3.31 3.31 0 011.14.3 2.85 2.85 0 01.89.64 2.9 2.9 0 01.58 1 3.67 3.67 0 01.2 1.22 3.37 3.37 0 01-.42 1.78 3.32 3.32 0 01-1 1.09 4 4 0 01-1.37.53 6.92 6.92 0 01-1.38.15h-4V50.85zm11.22 0h1.17v12.69h-1.17V50.85zm4.63 0h1.17v11.61h5.87v1.08h-7.04V50.85zm8.9 0h1.17v12.69h-1.17V50.85zm7.42 1.07h-4.31v-1.07h9.79v1.07h-4.31v11.62h-1.17V51.92zm10.21 6.15l-4.63-7.22h1.41l3.81 6.02 3.89-6.02H300l-4.63 7.22v5.47h-1.17v-5.47zM146.36 78l-9.64-12.45 18.82-14.78 9.64 12.45L146.36 78zm-4.19-39.23l-5.45 26.78 15.09-14.33-9.64-12.45zm-23.63-6.67l-.02-.02M81.57 63.9l36.94-31.84-9.61-12.4L81.57 63.9M92.72 9.23L54.68 62.25l47.68-40.57-9.64-12.45zm42.04 32.91l-9.64-12.45-15.09 34.32 24.73-21.87z"/><path class="cls-1" d="M98.14 70.88l26.98-41.19L81.57 63.9l9.64 12.45 6.93-5.47zm-26.85-1.69l37.61-49.53-23.76 38.68 33.4-26.24-9.64-12.44-54.22 42.59 9.64 12.45 6.97-5.51zm70.88-30.42l-32.14 25.24 9.64 12.45 7.11-5.58 15.39-32.11M15.87 66.48L75.26 0 27.43 60.52 84.9 12.45 75.26 0 0 59.12l9.64 12.45 6.23-5.09zm27.72 1.2L92.72 9.23 27.43 60.52l9.64 12.45 6.52-5.29z"/></svg>