<svg width="158" height="43" fill="none" xmlns="http://www.w3.org/2000/svg"><path fill-rule="evenodd" clip-rule="evenodd" d="M96.97 11.398l-1.207-2.97h-.018l-1.224 2.97h2.448zm-1.572-4.103h.794l2.769 6.469h-1.023l-.65-1.6H94.21l-.64 1.6h-1.023l2.851-6.469zm5.162 0v3.966c0 .201.027.409.082.625.055.217.146.417.274.599a1.5 1.5 0 00.502.448c.207.115.463.173.768.173.304 0 .56-.058.767-.173a1.49 1.49 0 00.502-.448c.128-.182.219-.382.275-.599.054-.216.081-.424.081-.625V7.295h.878v4.103c0 .377-.064.72-.192 1.027a2.461 2.461 0 01-.53.8 2.31 2.31 0 01-.795.52 2.627 2.627 0 01-.986.183c-.353 0-.682-.06-.987-.182a2.332 2.332 0 01-.795-.52 2.468 2.468 0 01-.53-.8 2.66 2.66 0 01-.191-1.028V7.295h.877zm5.864 5.116c.159.238.361.414.607.526.247.113.501.17.764.17.145 0 .295-.023.447-.069.153-.047.291-.115.416-.206.124-.091.226-.204.306-.338a.9.9 0 00.119-.466c0-.25-.08-.44-.238-.571a2.069 2.069 0 00-.589-.33 11.62 11.62 0 00-.768-.255 3.116 3.116 0 01-.767-.342 1.885 1.885 0 01-.59-.59c-.158-.246-.236-.58-.236-1 0-.189.04-.39.123-.603.082-.213.211-.408.388-.585a2.16 2.16 0 01.68-.443c.278-.119.611-.178 1.001-.178.353 0 .691.05 1.013.147.324.097.607.295.851.593l-.713.649a1.18 1.18 0 00-.466-.41 1.466 1.466 0 00-.685-.157c-.243 0-.447.032-.607.097a1.082 1.082 0 00-.389.245.864.864 0 00-.205.326.98.98 0 00-.06.319c0 .275.079.485.237.63.159.147.355.265.59.357.234.091.49.174.768.246.276.073.532.175.767.306.234.131.431.308.589.53.158.223.237.529.237.919 0 .31-.059.59-.178.84-.118.25-.279.46-.479.63a2.117 2.117 0 01-.713.393 2.762 2.762 0 01-.877.137c-.414 0-.807-.073-1.179-.219a1.945 1.945 0 01-.886-.676l.722-.622zm6.24-4.293h-2.084v-.823h5.044v.823h-2.084v5.646h-.876V8.118zm4.769 2.028h1.152c.17 0 .339-.014.507-.041.167-.027.316-.078.448-.15a.843.843 0 00.315-.316c.078-.137.118-.316.118-.535 0-.218-.04-.397-.118-.534a.84.84 0 00-.315-.315 1.383 1.383 0 00-.448-.15 3.106 3.106 0 00-.507-.042h-1.152v2.083zm-.876-2.85h2.274c.414 0 .755.056 1.024.169.267.113.479.256.634.429.156.174.264.369.324.585.062.216.092.424.092.625a1.673 1.673 0 01-.425 1.12 1.792 1.792 0 01-1.165.588l1.837 2.952h-1.097l-1.644-2.85h-.978v2.85h-.876V7.295zm9.181 4.102l-1.207-2.97h-.017l-1.225 2.97h2.449zm-1.571-4.103h.794l2.768 6.469h-1.022l-.65-1.6h-3.078l-.64 1.6h-1.024l2.852-6.469zm4.403 0h.877v5.647h2.97v.822h-3.847V7.295zm4.742 6.469h.876V7.295h-.876v6.469zm6.139-2.366l-1.207-2.97h-.018l-1.224 2.97h2.449zm-1.572-4.103h.794l2.769 6.469h-1.023l-.649-1.6h-3.078l-.64 1.6h-1.024l2.851-6.469zm4.404 0h1.151l3.563 5.318h.019V7.295h.876v6.469h-1.114l-3.599-5.317h-.02v5.317h-.876V7.295zM93.37 17.446h1.15l3.563 5.318h.019v-5.318h.876v6.469h-1.114l-3.6-5.317h-.019v5.317h-.876v-6.469zm7.272 0h4.174v.823h-3.298v1.927h3.07v.823h-3.07v2.074h3.463v.822h-4.339v-6.469zm6.934.824h-2.084v-.824h5.044v.823h-2.084v5.646h-.876v-5.646zm3.069-.824h.914l1.429 5.172h.018l1.522-5.172h1.005l1.521 5.172h.018l1.43-5.172h.914l-1.883 6.469h-.931l-1.563-5.281h-.018l-1.553 5.28h-.932l-1.891-6.468zm12.58 5.811a2.364 2.364 0 001.772-.758 2.44 2.44 0 00.493-.817c.116-.314.175-.648.175-1.001 0-.353-.059-.687-.175-1a2.371 2.371 0 00-1.26-1.37 2.379 2.379 0 00-1.005-.206c-.372 0-.707.068-1.005.205a2.365 2.365 0 00-1.261 1.37 2.885 2.885 0 00-.174 1c0 .354.059.688.174 1.002.116.313.28.585.493.817a2.364 2.364 0 001.773.758zm0 .822c-.494 0-.948-.086-1.361-.26a3.181 3.181 0 01-1.065-.717 3.336 3.336 0 01-.694-1.078 3.562 3.562 0 01-.251-1.343c0-.48.084-.929.251-1.343.168-.415.399-.773.694-1.078a3.168 3.168 0 011.065-.717c.413-.174.867-.261 1.361-.261s.947.087 1.361.26c.414.174.769.413 1.064.718.296.305.527.663.695 1.078.167.414.251.862.251 1.343 0 .48-.084.929-.251 1.343a3.322 3.322 0 01-.695 1.078 3.18 3.18 0 01-1.064.717c-.414.174-.867.26-1.361.26zm5.509-3.782h1.152c.17 0 .338-.013.506-.041a1.35 1.35 0 00.448-.151.824.824 0 00.315-.315c.079-.137.118-.316.118-.534 0-.22-.039-.398-.118-.535a.829.829 0 00-.315-.315 1.382 1.382 0 00-.448-.15 3.099 3.099 0 00-.506-.042h-1.152v2.083zm-.877-2.85h2.274c.415 0 .756.056 1.024.169.268.113.479.256.635.429.156.174.264.369.324.585.061.216.091.424.091.626a1.673 1.673 0 01-.424 1.119 1.783 1.783 0 01-1.165.588l1.836 2.952h-1.097l-1.643-2.85h-.978v2.85h-.877v-6.469zm5.582-.001h.877v2.796h.073l2.86-2.796h1.224l-3.124 2.988 3.334 3.48h-1.279l-3.015-3.233h-.073v3.234h-.877v-6.469zM93.607 30.832c0 .401.064.776.192 1.123a2.529 2.529 0 001.412 1.508c.338.146.716.22 1.137.22.42 0 .798-.074 1.136-.22a2.53 2.53 0 00.864-.602c.238-.256.42-.558.548-.906.128-.347.192-.721.192-1.123a3.23 3.23 0 00-.192-1.124 2.665 2.665 0 00-.548-.904 2.526 2.526 0 00-.864-.603 2.826 2.826 0 00-1.136-.22c-.42 0-.8.073-1.138.22a2.522 2.522 0 00-.863.603 2.66 2.66 0 00-.548.904 3.224 3.224 0 00-.192 1.124zm-.603 0c0-.494.082-.948.247-1.361.164-.414.392-.772.685-1.073a3.139 3.139 0 011.055-.71 3.53 3.53 0 011.357-.255c.493 0 .945.086 1.357.256a3.113 3.113 0 011.74 1.782c.164.413.246.867.246 1.361 0 .493-.082.949-.246 1.366a3.24 3.24 0 01-.686 1.078 3.067 3.067 0 01-1.054.704 3.57 3.57 0 01-1.357.25c-.494 0-.946-.083-1.357-.25a3.069 3.069 0 01-1.055-.704 3.235 3.235 0 01-.685-1.078 3.691 3.691 0 01-.247-1.366zm8.039-3.235h.776l3.938 5.665h.019v-5.665h.602v6.469h-.776l-3.938-5.664h-.018v5.664h-.603v-6.469zm10.003 5.921h1.243c.427 0 .825-.053 1.197-.16.371-.106.694-.27.968-.489.274-.219.49-.497.648-.835.159-.338.238-.739.238-1.202 0-.463-.079-.863-.238-1.201a2.291 2.291 0 00-.648-.836 2.715 2.715 0 00-.968-.489 4.304 4.304 0 00-1.197-.16h-1.243v5.372zm-.603-5.92h2.001c.561 0 1.036.068 1.425.206.39.137.714.312.974.525.259.213.462.45.612.708.148.259.258.506.329.744.069.238.114.452.132.645.018.191.027.327.027.406 0 .08-.009.214-.027.407a3.543 3.543 0 01-.132.644 3.589 3.589 0 01-.329.744c-.15.26-.353.495-.612.708a3.19 3.19 0 01-.974.526c-.389.136-.864.205-1.425.205h-2.001v-6.469zm6.853 6.468h.603v-6.469h-.603v6.469zm2.549-1.196c.158.273.363.477.616.61.253.136.541.202.864.202.201 0 .389-.03.566-.09.177-.061.331-.147.461-.257a1.22 1.22 0 00.311-.397 1.18 1.18 0 00.114-.526 1.01 1.01 0 00-.141-.557 1.135 1.135 0 00-.38-.36 2.726 2.726 0 00-.534-.242 37.032 37.032 0 00-.613-.202 6.974 6.974 0 01-.611-.228 2.062 2.062 0 01-.535-.334 1.496 1.496 0 01-.379-.516c-.094-.206-.141-.462-.141-.768a1.615 1.615 0 01.626-1.32 2.02 2.02 0 01.662-.337 2.67 2.67 0 01.786-.115c.353 0 .68.063.981.187.302.125.562.334.782.627l-.521.374a1.53 1.53 0 00-.534-.48 1.545 1.545 0 00-.727-.16c-.195 0-.381.027-.557.078-.177.052-.33.128-.461.228a1.104 1.104 0 00-.434.918c0 .324.082.571.247.745.164.174.369.311.616.411.247.101.515.19.804.265.289.076.557.178.804.306s.452.306.617.535c.164.229.246.544.246.945 0 .293-.055.552-.164.778a1.73 1.73 0 01-.443.57 1.927 1.927 0 01-.644.351 2.42 2.42 0 01-.759.12c-.426 0-.819-.075-1.178-.225a2.153 2.153 0 01-.923-.753l.576-.384zm7.173-4.614L125.51 31.8h2.969l-1.461-3.544zm-.284-.659h.622l2.722 6.469h-.676l-.704-1.717h-3.426l-.73 1.717h-.631l2.823-6.469zm4.877 5.921h1.38c.353 0 .638-.043.855-.128.216-.085.382-.192.498-.32a.998.998 0 00.232-.406c.04-.144.06-.272.06-.388 0-.238-.046-.442-.138-.613a1.226 1.226 0 00-.356-.415 1.472 1.472 0 00-.497-.233 2.227 2.227 0 00-.563-.074h-1.471v2.577zm0-3.125h1.253c.31 0 .563-.038.758-.114a1.32 1.32 0 00.457-.279.838.838 0 00.219-.351c.037-.125.055-.24.055-.342 0-.226-.038-.413-.115-.563a.939.939 0 00-.306-.355 1.226 1.226 0 00-.448-.188 2.556 2.556 0 00-.538-.055h-1.335v2.247zm-.602-2.796h1.863c.244 0 .491.02.741.06.249.04.473.122.671.247.197.125.359.298.484.52.125.223.187.517.187.883 0 .328-.097.614-.292.858-.195.244-.484.405-.868.484v.019c.213.017.408.068.585.15a1.444 1.444 0 01.754.818c.07.188.105.396.105.62 0 .372-.072.676-.215.91a1.64 1.64 0 01-.539.553 2.088 2.088 0 01-.704.274 3.737 3.737 0 01-.707.073h-2.065v-6.469zm5.756 6.469h.602v-6.469h-.602v6.469zm2.376-6.469h.602v5.92h3.015v.549h-3.617v-6.469zm4.567 6.469h.603v-6.469h-.603v6.469zm3.81-5.92h-2.21v-.549h5.024v.549h-2.211v5.92h-.603v-5.92zm5.244 3.134l-2.375-3.683h.721l1.955 3.07 2.001-3.07h.676l-2.375 3.682v2.787h-.603v-2.787z" fill="#363734"/><path fill-rule="evenodd" clip-rule="evenodd" d="M6.575 38.126l-4.96-6.359L40.33 1.569l4.96 6.359L6.575 38.126z" fill="#612968"/><path fill-rule="evenodd" clip-rule="evenodd" d="M45.29 7.928L20.683 38.84l-4.96-6.359L40.33 1.57l4.96 6.359z" fill="#8D2556"/><path fill-rule="evenodd" clip-rule="evenodd" d="M20.684 38.84l-4.96-6.358 33.59-26.2 4.96 6.359-33.59 26.2z" fill="#9E272B"/><path fill-rule="evenodd" clip-rule="evenodd" d="M54.274 12.64L34.702 39.727l-4.96-6.358L49.314 6.282l4.96 6.359z" fill="#C02536"/><path fill-rule="evenodd" clip-rule="evenodd" d="M34.702 39.726l-4.96-6.358 27.895-21.759 4.96 6.359-27.895 21.758z" fill="#C92C2B"/><path fill-rule="evenodd" clip-rule="evenodd" d="M62.597 17.968L48.583 40.537l-5.005-6.328 14.06-22.6 4.959 6.359z" fill="#CB372F"/><path fill-rule="evenodd" clip-rule="evenodd" d="M48.537 40.568l-4.959-6.359 22.403-17.474 4.96 6.358-22.404 17.475z" fill="#DA402C"/><path fill-rule="evenodd" clip-rule="evenodd" d="M70.94 23.093l-7.76 17.533-4.947-6.333 7.748-17.558 4.96 6.358z" fill="#D5702D"/><path fill-rule="evenodd" clip-rule="evenodd" d="M63.18 40.626l-4.947-6.333 16.518-12.92 4.96 6.358L63.18 40.626z" fill="#E0732B"/><path fill-rule="evenodd" clip-rule="evenodd" d="M79.71 27.731l-2.801 13.68-4.96-6.358 2.802-13.68 4.96 6.358z" fill="#E19130"/><path fill-rule="evenodd" clip-rule="evenodd" d="M76.909 41.411l-4.96-6.358 9.68-7.55 4.96 6.358-9.68 7.55z" fill="#ECA32F"/><path fill-rule="evenodd" clip-rule="evenodd" d="M79.71 27.731l-7.76 7.322 7.452-5.813.309-1.509z" fill="#CB7831"/><path fill-rule="evenodd" clip-rule="evenodd" d="M58.233 34.293l11.854-9.272.853-1.928-12.707 11.2z" fill="#CB662D"/><path fill-rule="evenodd" clip-rule="evenodd" d="M62.597 17.968L43.578 34.209l17.343-13.527 1.676-2.714z" fill="#BF2C2E"/><path fill-rule="evenodd" clip-rule="evenodd" d="M29.742 33.368l21.895-17.079 2.637-3.648-24.532 20.727z" fill="#AA2833"/><path fill-rule="evenodd" clip-rule="evenodd" d="M15.725 32.482l26.428-20.614 3.136-3.94-29.564 24.554z" fill="#7B1E26"/><path fill-rule="evenodd" clip-rule="evenodd" d="M65.98 16.735L52.1 37.788l7-5.46 6.88-15.593z" fill="#CB3534"/><path fill-rule="evenodd" clip-rule="evenodd" d="M57.637 11.61l-19.37 25.335 6.89-5.275 12.48-20.06z" fill="#B72538"/><path fill-rule="evenodd" clip-rule="evenodd" d="M74.751 21.373l-7.918 16.403 5.425-4.231 2.493-12.172z" fill="#D2662C"/><path fill-rule="evenodd" clip-rule="evenodd" d="M40.33 1.57L9.781 35.623l9.08-7.082L40.331 1.57z" fill="#4F2555"/><path fill-rule="evenodd" clip-rule="evenodd" d="M49.315 6.282l-25.273 29.94 8.337-6.503L49.315 6.282z" fill="#8E2329"/></svg>