<svg width="32" height="22" fill="none" xmlns="http://www.w3.org/2000/svg"><path d="M31.976 2.146c0-.034.025-.067.024-.101l-9.766 8.804 9.754 8.523c.006-.061-.012-.123-.012-.185V2.147zM20.744 12.204l-3.986 3.588a1.079 1.079 0 01-.723.273 1.08 1.08 0 01-.711-.262l-3.976-3.466-9.817 8.854a2.4 2.4 0 00.763.142h27.481a2.37 2.37 0 001.097-.283l-10.128-8.846z" fill="#3D3D3D"/><path d="M16.023 13.746L30.926.314A2.374 2.374 0 0029.775 0H2.294C1.746 0 1.244.2.852.503l15.17 13.243zM0 2.473v16.714c0 .192.047.377.098.553l9.696-8.735L0 2.473z" fill="#3D3D3D"/></svg>