<svg width="24" height="25" fill="none" xmlns="http://www.w3.org/2000/svg"><path d="M12 .5C5.376.5 0 5.876 0 12.5s5.376 12 12 12 12-5.376 12-12-5.376-12-12-12zM6.084 20.036C6.6 18.956 9.744 17.9 12 17.9c2.256 0 5.412 1.056 5.916 2.136A9.471 9.471 0 0112 22.1a9.471 9.471 0 01-5.916-2.064zm13.548-1.74C17.916 16.208 13.752 15.5 12 15.5c-1.752 0-5.916.708-7.632 2.796A9.54 9.54 0 012.4 12.5c0-5.292 4.308-9.6 9.6-9.6s9.6 4.308 9.6 9.6a9.54 9.54 0 01-1.968 5.796zM12 5.3a4.19 4.19 0 00-4.2 4.2 4.19 4.19 0 004.2 4.2 4.19 4.19 0 004.2-4.2A4.19 4.19 0 0012 5.3zm0 6c-.996 0-1.8-.804-1.8-1.8s.804-1.8 1.8-1.8 1.8.804 1.8 1.8-.804 1.8-1.8 1.8z" fill="#fff"/></svg>