<svg width="33" height="32" fill="none" xmlns="http://www.w3.org/2000/svg"><path d="M16.002 0c-8.832 0-16 7.168-16 16s7.168 16 16 16 16-7.168 16-16-7.168-16-16-16zM8.114 26.048c.688-1.44 4.88-2.848 7.888-2.848s7.216 1.408 7.888 2.848a12.628 12.628 0 01-7.888 2.752 12.629 12.629 0 01-7.888-2.752zm18.064-2.32C23.89 20.944 18.338 20 16.002 20c-2.336 0-7.888.944-10.176 3.728A12.72 12.72 0 013.202 16c0-7.056 5.744-12.8 12.8-12.8 7.056 0 12.8 5.744 12.8 12.8a12.72 12.72 0 01-2.624 7.728zM16.002 6.4a5.586 5.586 0 00-5.6 5.6c0 3.104 2.496 5.6 5.6 5.6 3.104 0 5.6-2.496 5.6-5.6 0-3.104-2.496-5.6-5.6-5.6zm0 8a2.397 2.397 0 01-2.4-2.4c0-1.328 1.072-2.4 2.4-2.4 1.328 0 2.4 1.072 2.4 2.4 0 1.328-1.072 2.4-2.4 2.4z" fill="#fff"/></svg>