<svg width="40" height="38" fill="none" xmlns="http://www.w3.org/2000/svg"><path d="M26.426 1.572c-11.11-3.929-20.725 0-24.998 6.33-4.274 6.33 1.495 25.976 11.324 29.25 9.828 3.274 22.434-3.274 26.067-13.752C42.45 12.923 37.537 5.501 26.426 1.572z" fill="#3D3D3D"/><path d="M23.333 19c1.384 0 2.492-1.132 2.492-2.534s-1.108-2.533-2.492-2.533c-1.383 0-2.5 1.131-2.5 2.533S21.95 19 23.333 19zm-6.666 0c1.383 0 2.491-1.132 2.491-2.534s-1.108-2.533-2.491-2.533c-1.384 0-2.5 1.131-2.5 2.533S15.283 19 16.667 19zm0 1.688c-1.942 0-5.834.988-5.834 2.956v2.111H22.5v-2.111c0-1.968-3.892-2.956-5.833-2.956zm6.666 0c-.241 0-.516.017-.808.043.967.709 1.642 1.663 1.642 2.913v2.111h5v-2.111c0-1.968-3.892-2.956-5.834-2.956z" fill="#EFAB42"/></svg>