<svg width="48" height="45" viewBox="0 0 48 45" fill="none" xmlns="http://www.w3.org/2000/svg">
<path d="M31.7115 1.86181C18.3789 -2.79102 6.84116 1.86181 1.71326 9.35804C-3.41463 16.8543 3.50803 40.1183 15.3022 43.9957C27.0963 47.873 42.2236 40.1183 46.5823 27.7108C50.941 15.3032 45.044 6.51464 31.7115 1.86181Z" fill="#CC3A32"/>
<path d="M28 22.5C29.66 22.5 30.99 21.16 30.99 19.5C30.99 17.84 29.66 16.5 28 16.5C26.34 16.5 25 17.84 25 19.5C25 21.16 26.34 22.5 28 22.5ZM20 22.5C21.66 22.5 22.99 21.16 22.99 19.5C22.99 17.84 21.66 16.5 20 16.5C18.34 16.5 17 17.84 17 19.5C17 21.16 18.34 22.5 20 22.5ZM20 24.5C17.67 24.5 13 25.67 13 28V30.5H27V28C27 25.67 22.33 24.5 20 24.5ZM28 24.5C27.71 24.5 27.38 24.52 27.03 24.55C28.19 25.39 29 26.52 29 28V30.5H35V28C35 25.67 30.33 24.5 28 24.5Z" fill="white"/>
</svg>
