<svg width="32" height="30" fill="none" xmlns="http://www.w3.org/2000/svg"><path d="M21.141 1.241c-8.888-3.102-16.58 0-19.999 4.998-3.418 4.997 1.197 20.507 9.06 23.091 7.862 2.585 17.947-2.584 20.853-10.856 2.906-8.272-1.026-14.13-9.914-17.233z" fill="#fff"/><g clip-path="url(#clip0_2210:4157)"><path d="M18.666 15a1.992 1.992 0 001.993-2 1.997 1.997 0 10-3.993 0c0 1.106.893 2 2 2zm-5.333 0a1.992 1.992 0 001.993-2 1.997 1.997 0 10-3.993 0c0 1.106.893 2 2 2zm0 1.333c-1.554 0-4.667.78-4.667 2.333v1.667h9.333v-1.667c0-1.553-3.113-2.333-4.666-2.333zm5.333 0c-.193 0-.413.013-.647.033.774.56 1.314 1.314 1.314 2.3v1.667h4v-1.667c0-1.553-3.114-2.333-4.667-2.333z" fill="#A22F2C"/></g><defs><clipPath id="clip0_2210:4157"><path fill="#fff" transform="translate(8 7.666)" d="M0 0h16v16H0z"/></clipPath></defs></svg>