<svg width="48" height="45" viewBox="0 0 48 45" fill="none" xmlns="http://www.w3.org/2000/svg">
<path d="M31.7115 1.86181C18.3789 -2.79102 6.84116 1.86181 1.71326 9.35804C-3.41463 16.8543 3.50803 40.1183 15.3022 43.9957C27.0963 47.873 42.2236 40.1183 46.5823 27.7108C50.941 15.3032 45.044 6.51464 31.7115 1.86181Z" fill="#A22F2C"/>
<path d="M16 17H14V31C14 32.1 14.9 33 16 33H30V31H16V17ZM32 13H20C18.9 13 18 13.9 18 15V27C18 28.1 18.9 29 20 29H32C33.1 29 34 28.1 34 27V15C34 13.9 33.1 13 32 13ZM31 22H21V20H31V22ZM27 26H21V24H27V26ZM31 18H21V16H31V18Z" fill="white"/>
</svg>
