<svg width="32" height="30" fill="none" xmlns="http://www.w3.org/2000/svg"><path d="M21.141 1.241c-8.888-3.102-16.58 0-19.999 4.998-3.418 4.997 1.197 20.507 9.06 23.091 7.862 2.585 17.947-2.584 20.853-10.856 2.906-8.272-1.026-14.13-9.914-17.233z" fill="#5F5B5B"/><path d="M18.666 15a1.992 1.992 0 001.994-2 1.997 1.997 0 10-3.993 0c0 1.106.893 2 2 2zm-5.333 0a1.992 1.992 0 001.993-2 1.997 1.997 0 10-3.993 0c0 1.106.893 2 2 2zm0 1.333c-1.553 0-4.667.78-4.667 2.333v1.667H18v-1.667c0-1.553-3.114-2.333-4.667-2.333zm5.333 0a7.79 7.79 0 00-.646.033c.773.56 1.313 1.314 1.313 2.3v1.667h4v-1.667c0-1.553-3.113-2.333-4.666-2.333z" fill="#fff"/></svg>