<?xml version="1.0" encoding="UTF-8"?>
<svg id="Layer_2" data-name="Layer 2" xmlns="http://www.w3.org/2000/svg" viewBox="0 0 22.56 22.56">
  <defs>
    <style>
      .cls-1 {
        fill: #fff;
        stroke-width: 0px;
      }
    </style>
  </defs>
  <path class="cls-1" d="M16.2,17.04c-.23-.33-.45-.65-.68-.98-.11-.16-.21-.31-.32-.47-.11-.16-.22-.32-.33-.48-.11-.16-.22-.32-.33-.48-.22-.32-.44-.64-.66-.96-.11-.16-.22-.32-.33-.48-.11-.16-.22-.32-.33-.48-.11-.16-.22-.32-.33-.48-.11-.16-.22-.32-.33-.48-.11-.16-.22-.32-.33-.48-.11-.16-.22-.32-.33-.48-.11-.16-.22-.32-.33-.48-.11-.16-.22-.32-.33-.49-.11-.16-.22-.31-.33-.47-.12-.17-.24-.34-.35-.51-.1-.15-.2-.3-.31-.44-.23-.34-.46-.67-.7-1.01-.1-.14-.2-.29-.3-.43-.12-.17-.23-.34-.35-.5-.11-.15-.21-.3-.32-.46-.16-.23-.32-.46-.47-.69-.02-.04-.05-.05-.09-.05-.57,0-1.14,0-1.71,0h-.06s.01.03.02.04c.07.1.13.19.2.29.11.16.21.31.32.47.22.32.44.64.67.97.11.16.22.31.33.47.22.32.44.64.67.97.11.16.22.32.33.48.11.16.22.32.33.48.11.16.22.32.33.48.11.16.22.32.33.48.11.16.22.32.33.48.11.16.22.32.33.48.11.16.22.32.33.49.11.16.22.31.33.47.11.16.23.33.34.49l.32.47c.11.16.23.33.34.49.11.16.21.31.32.47.22.32.44.64.67.97.11.16.22.31.33.47.11.16.23.33.34.49.11.16.21.31.32.47.17.24.33.48.5.72.04.06.09.13.13.19.02.03.04.05.08.05.58,0,1.15,0,1.73,0,.02,0,.03,0,.06,0-.02-.03-.03-.05-.04-.07-.11-.15-.21-.31-.32-.46Z"/>
  <path class="cls-1" d="M11.4.43C5.34.43.44,5.34.44,11.39s4.91,10.96,10.96,10.96,10.96-4.91,10.96-10.96S17.45.43,11.4.43ZM14.16,18.45s-.01-.03-.02-.04c-.2-.3-.41-.6-.61-.9-.11-.16-.21-.31-.32-.47-.11-.17-.23-.33-.34-.5-.21-.32-.43-.63-.64-.95-.12-.17-.23-.34-.35-.51-.1-.15-.2-.3-.3-.45-.22-.32-.44-.64-.66-.97-.11-.16-.21-.31-.32-.47-.05-.07-.1-.14-.15-.22-.02.02-.03.03-.04.05-.07.08-.13.16-.2.23-.14.16-.27.32-.41.48-.14.17-.29.34-.43.51-.13.15-.25.3-.38.45-.14.16-.27.32-.41.48-.13.16-.27.31-.4.47-.14.17-.28.33-.42.5-.13.15-.26.31-.39.46-.15.17-.29.35-.44.52-.13.15-.25.3-.38.45-.14.17-.28.33-.42.5-.09.11-.19.22-.28.33-.01.01-.02.03-.03.05-.39,0-.79,0-1.18,0-.01,0-.03.01-.03-.01.02-.01.03-.03.05-.04.24-.28.47-.55.71-.83.13-.15.26-.31.39-.46.14-.17.28-.33.42-.5.13-.15.25-.3.38-.45.15-.17.29-.34.44-.51.13-.16.26-.31.4-.47.14-.16.27-.32.41-.48.14-.16.27-.32.41-.48.14-.16.27-.32.41-.48.13-.15.25-.3.38-.45.15-.17.29-.35.44-.52.13-.16.26-.31.4-.47.03-.04.06-.08.1-.12-.01-.02-.02-.04-.04-.05-.18-.26-.36-.53-.54-.79-.11-.16-.21-.31-.32-.47-.22-.32-.44-.64-.65-.96-.11-.16-.21-.31-.32-.47l-.34-.5c-.11-.16-.21-.31-.32-.47-.22-.32-.44-.65-.66-.97-.1-.15-.21-.3-.31-.45-.22-.33-.44-.65-.66-.98-.11-.16-.21-.31-.32-.47-.11-.16-.22-.32-.33-.48-.16-.24-.33-.48-.49-.72,0,0-.01-.02-.02-.04.03,0,.05,0,.07,0,.42,0,.83,0,1.25,0h2.64s.03,0,.05,0c.03,0,.04,0,.06.03.07.11.14.21.22.32.18.27.37.54.55.81.11.16.22.32.33.49.22.32.43.63.65.95.11.16.22.32.33.48l.65.96c.11.16.22.32.32.48.11.16.22.32.33.48.04.06.07.11.11.17.04-.03.07-.08.11-.11.12-.14.23-.28.35-.41.15-.18.31-.36.46-.54.13-.15.26-.31.39-.46l.42-.5c.13-.16.27-.32.4-.48.14-.16.27-.32.41-.48.13-.15.25-.3.38-.45.15-.17.29-.35.44-.52.13-.15.26-.31.39-.46.14-.17.28-.33.43-.5.07-.08.13-.16.2-.23.02-.02.04-.03.06-.03.37,0,.75,0,1.12,0,0,0,.02,0,.04,0-.02.02-.03.04-.04.05-.18.21-.36.42-.53.63-.14.16-.27.32-.41.48-.13.16-.27.32-.4.48-.14.16-.27.32-.41.48-.14.16-.27.32-.41.48-.14.16-.27.32-.41.48-.13.16-.27.31-.4.47-.14.16-.28.33-.42.49-.13.16-.27.31-.4.47-.14.16-.28.33-.41.49-.13.16-.27.32-.4.48-.14.16-.27.32-.41.48.01.02.03.05.04.07.09.13.17.25.26.38.12.17.23.34.35.51.11.15.21.31.31.46.22.32.44.65.66.97.1.15.21.3.31.45.22.33.44.65.67.98.1.15.21.31.31.46.11.17.23.34.34.51.1.15.21.31.31.46.22.32.44.65.66.97.1.15.2.3.31.45l.35.51c.11.16.21.31.32.47.09.14.19.28.28.42.01.01.01.03.02.05h-4.05Z"/>
</svg>