<svg width="30" height="31" fill="none" xmlns="http://www.w3.org/2000/svg"><path fill-rule="evenodd" clip-rule="evenodd" d="M15 30.189c8.288 0 15-6.713 15-15 0-8.288-6.712-15-15-15-8.287 0-15 6.712-15 15 0 8.287 6.713 15 15 15zm7.548-17.378c0 4.777-3.638 10.29-10.29 10.29-2.04 0-3.945-.6-5.528-1.635a7.27 7.27 0 005.355-1.492A3.611 3.611 0 018.71 17.46a3.605 3.605 0 001.635-.06 3.62 3.62 0 01-2.902-3.547v-.045c.487.27 1.042.434 1.635.45a3.6 3.6 0 01-1.613-3.008c0-.66.18-1.282.488-1.815a10.26 10.26 0 007.455 3.78 3.314 3.314 0 01-.098-.825 3.617 3.617 0 013.615-3.615 3.6 3.6 0 012.64 1.14 7.324 7.324 0 002.295-.877 3.614 3.614 0 01-1.59 2.002 7.34 7.34 0 002.078-.57 7.41 7.41 0 01-1.808 1.875c.008.15.008.307.008.465z" fill="#fff"/></svg>