<svg width="48" height="45" viewBox="0 0 48 45" fill="none" xmlns="http://www.w3.org/2000/svg">
<path d="M31.7115 1.86181C18.3789 -2.79102 6.84116 1.86181 1.71326 9.35804C-3.41463 16.8543 3.50803 40.1183 15.3022 43.9957C27.0963 47.873 42.2236 40.1183 46.5823 27.7108C50.941 15.3032 45.044 6.51464 31.7115 1.86181Z" fill="#A22F2C"/>
<path d="M29 23H24V28H29V23ZM28 12V14H20V12H18V14H17C15.89 14 15.01 14.9 15.01 16L15 30C15 31.1 15.89 32 17 32H31C32.1 32 33 31.1 33 30V16C33 14.9 32.1 14 31 14H30V12H28ZM31 30H17V19H31V30Z" fill="white"/>
</svg>
