<svg width="119" height="28" fill="none" xmlns="http://www.w3.org/2000/svg"><path fill-rule="evenodd" clip-rule="evenodd" d="M59.093 22.46c.207-.54.31-1.424.31-2.65v-5.166c0-1.19-.103-2.06-.31-2.61-.208-.55-.573-.826-1.096-.826-.505 0-.861.275-1.068.825-.208.55-.311 1.42-.311 2.61v5.167c0 1.226.099 2.11.297 2.65.198.542.559.812 1.082.812s.888-.27 1.096-.811zm-4.191 2.597c-.75-.505-1.281-1.29-1.596-2.354-.316-1.063-.473-2.479-.473-4.246V16.05c0-1.786.18-3.22.54-4.301.36-1.082.924-1.871 1.69-2.367.767-.496 1.773-.744 3.017-.744 1.226 0 2.209.253 2.948.757.74.505 1.28 1.294 1.623 2.367.342 1.073.514 2.502.514 4.288v2.407c0 1.767-.167 3.187-.5 4.26-.334 1.073-.875 1.858-1.623 2.353-.749.496-1.763.744-3.043.744-1.317 0-2.35-.253-3.097-.757zm57.919-13.54c-.189.235-.316.618-.379 1.15-.063.532-.094 1.339-.094 2.42v1.19h2.732v-1.19c0-1.063-.037-1.87-.108-2.42-.073-.55-.203-.938-.392-1.163-.19-.226-.483-.338-.88-.338s-.69.117-.879.351zm-.469 6.98v.838c0 1.064.031 1.862.094 2.394s.194.92.392 1.163c.199.244.505.365.92.365.559 0 .942-.216 1.15-.649.207-.433.319-1.154.337-2.164l3.22.19c.018.144.027.343.027.595 0 1.533-.419 2.678-1.258 3.435-.838.757-2.025 1.136-3.557 1.136-1.839 0-3.129-.577-3.868-1.731-.74-1.154-1.109-2.94-1.109-5.356v-2.894c0-2.489.383-4.305 1.15-5.45.766-1.146 2.078-1.718 3.935-1.718 1.28 0 2.263.234 2.948.703.685.47 1.168 1.2 1.448 2.19.279.993.419 2.364.419 4.112v2.84h-6.248zm-66.539-.31L41.566 2.85h3.706L46.76 9.8c.379 1.714.658 3.174.838 4.382h.108c.127-.865.406-2.317.839-4.355l1.542-6.978h3.705l-4.3 15.337v7.357h-3.679v-7.357zm29.405-9.225v16.581h-2.922l-.324-2.028h-.081c-.794 1.533-1.984 2.299-3.57 2.299-1.1 0-1.912-.36-2.435-1.082-.523-.72-.784-1.848-.784-3.381V8.962h3.732v12.172c0 .74.082 1.267.244 1.583.162.316.433.473.811.473.325 0 .636-.099.933-.298a1.84 1.84 0 00.663-.756V8.962h3.733zm19.148 0v16.581h-2.921l-.325-2.029h-.08c-.795 1.533-1.985 2.3-3.571 2.3-1.1 0-1.912-.36-2.435-1.083-.523-.72-.784-1.848-.784-3.38V8.96h3.733v12.173c0 .74.08 1.267.243 1.582.162.316.433.474.812.474.324 0 .635-.1.933-.298a1.84 1.84 0 00.663-.757V8.962h3.732z" fill="#fff"/><path fill-rule="evenodd" clip-rule="evenodd" d="M85.36 5.852h-3.707v19.692h-3.651V5.852h-3.706V2.85H85.36v3.002zm17.939 12.525c0 1.208-.05 2.155-.149 2.84-.099.686-.266 1.172-.501 1.46-.234.29-.55.433-.946.433-.307 0-.591-.071-.852-.216a1.631 1.631 0 01-.636-.65v-9.412c.126-.45.343-.82.649-1.11.307-.287.64-.432 1.001-.432.379 0 .671.149.879.446.207.298.352.798.433 1.502.081.703.122 1.704.122 3.002v2.137zm3.421-6.764c-.226-1.045-.591-1.803-1.096-2.272-.505-.468-1.199-.703-2.082-.703-.686 0-1.326.194-1.921.581a3.948 3.948 0 00-1.379 1.529h-.028V2.01h-3.597v23.532h3.084l.378-1.568h.081c.289.559.721 1 1.299 1.325a3.85 3.85 0 001.92.487c1.262 0 2.191-.582 2.786-1.745.595-1.163.893-2.98.893-5.45v-2.624c0-1.857-.113-3.309-.338-4.355zM37.034 5.104A4.737 4.737 0 0033.69 1.76C30.74.97 18.912.97 18.912.97s-11.828 0-14.778.79A4.737 4.737 0 00.791 5.104C0 8.054 0 14.208 0 14.208s0 6.155.79 9.104a4.736 4.736 0 003.344 3.344c2.95.79 14.778.79 14.778.79s11.828 0 14.778-.79a4.737 4.737 0 003.344-3.343c.79-2.95.79-9.105.79-9.105s0-6.154-.79-9.104z" fill="#fff"/><path fill-rule="evenodd" clip-rule="evenodd" d="M15.129 19.883V8.534l9.826 5.674-9.826 5.674z" fill="#545454"/></svg>